<svg xmlns="http://www.w3.org/2000/svg" width="205.172" height="65.868" viewBox="0 0 205.172 65.868"><defs><style>.a,.c{fill:#fff;}.b{fill:#1eaf62;}.c{opacity:0.7;}</style></defs><g transform="translate(19006 8733)"><g transform="translate(-19777 -13483)"><path class="a" d="M-191.638-6.48h-3.674v-7.466a16.858,16.858,0,0,0-6.849-1.5c-5.409,0-8.289,3.145-8.289,7.584,0,4.233,3.2,7.407,9.259,7.407h9.083c.323,0,.47-.029.47-.059Zm-10.758,0c-1.558,0-2.41-.617-2.41-1.764,0-1.293.911-1.911,2.234-1.911a3.517,3.517,0,0,1,1.675.382V-6.48Zm-5.614-13.228a2.773,2.773,0,0,0,2.792,2.792,2.766,2.766,0,0,0,2.763-2.792,2.766,2.766,0,0,0-2.763-2.792A2.773,2.773,0,0,0-208.01-19.708Zm6.143,0a2.773,2.773,0,0,0,2.792,2.792,2.766,2.766,0,0,0,2.763-2.792,2.766,2.766,0,0,0-2.763-2.792A2.773,2.773,0,0,0-201.867-19.708ZM-188.9-15.8v8.907a9.586,9.586,0,0,1-3.2.412h-.47V-.513c0,.029.147.059.47.059h.029c4.027,0,7.231-1.382,8.76-3.263V-15.8Zm-3.821,19.606A2.773,2.773,0,0,0-189.933,6.6a2.766,2.766,0,0,0,2.763-2.792,2.766,2.766,0,0,0-2.763-2.792A2.773,2.773,0,0,0-192.725,3.808Zm6.143,0A2.773,2.773,0,0,0-183.789,6.6a2.766,2.766,0,0,0,2.763-2.792,2.766,2.766,0,0,0-2.763-2.792A2.773,2.773,0,0,0-186.582,3.808Zm20.606-13.345c-.147-5.526-2.058-7-9.465-7.084h-2.7v5.585h4.086c1.5,0,2.5.529,2.5,1.793V-6.48h-8.818V-.454h14.4Zm21.9,3.057H-147.9v-7.466a16.858,16.858,0,0,0-6.849-1.5c-5.409,0-8.289,3.2-8.289,7.643,0,4.233,2.969,7.349,9.024,7.349h.529c-.029,1.5-.823,2.352-3.5,2.352a18.262,18.262,0,0,1-4.7-.705l-1.029,5.379a20.607,20.607,0,0,0,5.556.764,10.454,10.454,0,0,0,6.379-1.822c1.617-1.205,2.557-3.2,2.822-5.967h3.41c.323,0,.47-.029.47-.059Zm-10.905,0c-1.558,0-2.41-.676-2.41-1.852,0-1.293.852-1.911,2.263-1.911a4.215,4.215,0,0,1,1.646.323V-6.48Zm31.07,0h-5.35a7.085,7.085,0,0,0,2.528-5.409,4.643,4.643,0,0,0-2.146-4.233,10.1,10.1,0,0,0-5.556-1.382,20.292,20.292,0,0,0-7.466,1.44l-1,4.439,3.469,5.144h-5.585V-.513c0,.029.147.059.47.059h20.165c.323,0,.47-.029.47-.059Zm-10.7-5.438c1.323,0,2.146.676,2.146,1.764a3.316,3.316,0,0,1-2.028,2.763l-1.969-4.145A5.6,5.6,0,0,1-134.612-11.918ZM-93.7-6.48a9.586,9.586,0,0,1-3.2-.412v-6.79h-5.585V-6.8a5.134,5.134,0,0,1-1.881.323,5.367,5.367,0,0,1-1.881-.323v-5.556h-5.585V-6.8a5.133,5.133,0,0,1-1.881.323,5.367,5.367,0,0,1-1.881-.323v-5.556h-5.585v5.467a9.586,9.586,0,0,1-3.2.412h-.47V-.513c0,.029.147.059.47.059h.029a11.286,11.286,0,0,0,5.849-1.44,8.355,8.355,0,0,0,4.791,1.44,8.232,8.232,0,0,0,4.732-1.411,8.268,8.268,0,0,0,4.615,1.411,10.52,10.52,0,0,0,5.291-1.264,11.31,11.31,0,0,0,5.35,1.264h.029c.323,0,.47-.029.47-.059V-6.48Zm3.2-15.432V-6.892a9.586,9.586,0,0,1-3.2.412h-.47V-.513c0,.029.147.059.47.059h.029A11.287,11.287,0,0,0-88.4-1.659a9.573,9.573,0,0,0,3.5-2.969V-21.912ZM-81.379-.454h5.585V-21.912h-5.585ZM-45.812-5.6a4.756,4.756,0,0,1-2.939-2.969q-.441-1.058-.97-2.734c-1.382-4.38-3.439-6.2-7.554-6.2a10.92,10.92,0,0,0-7,2.5l3,3.821a6.15,6.15,0,0,1,3.38-1.088c2.146.147,2.41.911,3.292,3.38a6.972,6.972,0,0,0,1.352,2.557h-3.41c-6.232,0-9.436,2.851-9.436,8.025,0,4.938,3.586,7.672,10.171,7.672h2.851V3.338h-4.35c-1.44,0-2.5-.705-2.5-1.911s1.058-1.881,2.5-1.881h10.053Zm-5.467,9.553a2.773,2.773,0,0,0,2.792,2.792,2.791,2.791,0,0,0,2.792-2.792,2.791,2.791,0,0,0-2.792-2.792A2.773,2.773,0,0,0-51.279,3.955Zm8.26-4.409h5.585V-21.912h-5.585ZM-22.472-6.48a9.586,9.586,0,0,1-3.2-.412v-8.26h-5.585V-1.777c0,2.234-.794,3.233-3.5,3.233h-1l-1.088,5.7a12.529,12.529,0,0,0,2.293.176,9.6,9.6,0,0,0,6.2-1.94c1.617-1.293,2.5-3.38,2.646-6.29a11.109,11.109,0,0,0,3.2.441h.029c.323,0,.47-.029.47-.059V-6.48Zm17.2.882a4.778,4.778,0,0,1-2.969-3c-.265-.705-.588-1.617-.941-2.7-1.382-4.38-3.439-6.2-7.554-6.2a10.92,10.92,0,0,0-7,2.5l3.028,3.821a6.336,6.336,0,0,1,3.351-1.088c2.146.147,2.41.911,3.292,3.38a7.645,7.645,0,0,0,1.235,2.41H-24.412V-.513c0,.029.147.059.47.059H-6.834Z" transform="translate(981.449 4772.5)"/><g transform="translate(771 4792.484)"><path class="b" d="M10.621,10.621,0,0H21.242Z" transform="translate(204.989 0) rotate(90)"/><path class="c" d="M-152.273-1.34a5.916,5.916,0,0,1-2.634-.544v-9.772h-2.022v9.738a7.206,7.206,0,0,1-3.195.578H-165.8q-3.059,0-3.059-2.6a7.4,7.4,0,0,1,.323-2.022l-1.852-.34a10.1,10.1,0,0,0-.476,2.957c0,2.974,1.8,4.1,4.928,4.1h5.506a9.665,9.665,0,0,0,4.537-.935,7.077,7.077,0,0,0,3.6.935h.017c.187,0,.272-.017.272-.034V-1.34Zm-8.888-5.081h-.986c-.731,0-1.071-.323-1.071-.748a.594.594,0,0,1,.629-.646.751.751,0,0,1,.544.187l.731-.782a2.005,2.005,0,0,0-1.394-.561,1.524,1.524,0,0,0-1.614,1.529,1.545,1.545,0,0,0,.374,1.02h-.816v1.343h3.6Zm13.408,5.081h-4.792V.716c0,.017.085.034.272.034h4.248c.187,0,.272-.017.272-.034Zm4.248,0H-148.3V.716c0,.017.085.034.272.034h4.248c.187,0,.272-.017.272-.034Zm4.384-6.407h-2.022v5.965a6.95,6.95,0,0,1-2.634.442h-.272V.716c0,.017.085.034.272.034h.017a9.54,9.54,0,0,0,2.617-.357,6.81,6.81,0,0,0,2.022-.884Zm-4.605,10.961a1.219,1.219,0,0,0,1.241,1.207,1.211,1.211,0,0,0,1.207-1.207,1.2,1.2,0,0,0-1.207-1.224A1.212,1.212,0,0,0-143.725,3.215Zm3.348,0a1.2,1.2,0,0,0,1.207,1.207,1.215,1.215,0,0,0,1.224-1.207,1.208,1.208,0,0,0-1.224-1.224A1.194,1.194,0,0,0-140.377,3.215Zm14.02-4.554h-2.6V-3.77c0-2.906-1.224-3.96-4.826-3.96h-1.411v2.022h1.869c1.7,0,2.345.459,2.345,2.022V-1.34h-5.795V.75h10.145c.187,0,.272-.017.272-.034Zm4.384-6.407h-2.022v5.965a6.95,6.95,0,0,1-2.634.442h-.272V.716c0,.017.085.034.272.034h.017a9.54,9.54,0,0,0,2.617-.357,6.81,6.81,0,0,0,2.022-.884Zm-4.605,10.961a1.219,1.219,0,0,0,1.241,1.207,1.211,1.211,0,0,0,1.207-1.207,1.2,1.2,0,0,0-1.207-1.224A1.212,1.212,0,0,0-126.578,3.215Zm3.348,0a1.2,1.2,0,0,0,1.207,1.207A1.215,1.215,0,0,0-120.8,3.215a1.208,1.208,0,0,0-1.224-1.224A1.194,1.194,0,0,0-123.23,3.215Zm22.551-4.554a5.542,5.542,0,0,1-2.26-.408.525.525,0,0,1-.374-.527V-5.656h-1.954v7.97a8.281,8.281,0,0,1-3.518.782c-2.719,0-4.18-1.343-4.18-3.773a7.358,7.358,0,0,1,.221-1.8l-1.852-.34a10.079,10.079,0,0,0-.34,2.532c0,3.348,2.209,5.455,5.931,5.455a11.1,11.1,0,0,0,5.625-1.6V.156A5.793,5.793,0,0,0-100.7.75h.017c.187,0,.272-.017.272-.034V-1.34Zm-9.941-4.741a1.222,1.222,0,0,0,1.241,1.224,1.218,1.218,0,0,0,1.224-1.224,1.222,1.222,0,0,0-1.224-1.241A1.226,1.226,0,0,0-110.621-6.081ZM-96.278-1.34h-4.792V.716c0,.017.085.034.272.034h4.248c.187,0,.272-.017.272-.034Zm4.248,0h-4.792V.716c0,.017.085.034.272.034H-92.3c.187,0,.272-.017.272-.034Zm7,0a5.891,5.891,0,0,1-2.617-.544V-7.747h-2.022v5.863A5.916,5.916,0,0,1-92.3-1.34h-.272V.716c0,.017.085.034.272.034h.017a7.1,7.1,0,0,0,3.62-.935,7.184,7.184,0,0,0,3.62.935h.017c.187,0,.272-.017.272-.034V-1.34Zm-6.492,4.554a1.219,1.219,0,0,0,1.241,1.207,1.211,1.211,0,0,0,1.207-1.207,1.2,1.2,0,0,0-1.207-1.224A1.212,1.212,0,0,0-91.519,3.215Zm3.348,0a1.2,1.2,0,0,0,1.207,1.207,1.215,1.215,0,0,0,1.224-1.207,1.208,1.208,0,0,0-1.224-1.224A1.194,1.194,0,0,0-88.172,3.215Zm7.8-10.961h-2.022v5.965a6.95,6.95,0,0,1-2.634.442H-85.3V.716c0,.017.085.034.272.034h.017A9.54,9.54,0,0,0-82.394.394,6.81,6.81,0,0,0-80.371-.49Zm-2.94,10.961a1.226,1.226,0,0,0,1.241,1.241,1.222,1.222,0,0,0,1.224-1.241,1.208,1.208,0,0,0-1.224-1.224A1.212,1.212,0,0,0-83.311,3.215ZM-68.731-1.34c-1.139-.119-1.852-.663-1.852-1.818A1.458,1.458,0,0,1-69.053-4.79a1.746,1.746,0,0,1,1.19.442l1.36-1.275a3.935,3.935,0,0,0-2.651-.986A3.115,3.115,0,0,0-72.4-3.4,2.989,2.989,0,0,0-71.67-1.34h-1.648V.75h7.052V-1.34Zm23.808,0c-1.7,0-2.175-.357-2.515-1.6l-1-3.416h-3.62c-1.784,0-3.059,1-3.059,2.634a4.022,4.022,0,0,0,.187,1.173L-53.47,2.28a9,9,0,0,1-1.886.561,10.109,10.109,0,0,1-2.192.255c-2.736,0-4.215-1.343-4.215-3.79a6.371,6.371,0,0,1,.221-1.767l-1.852-.357a10.314,10.314,0,0,0-.34,2.549c0,3.331,2.243,5.438,6.033,5.438a11.55,11.55,0,0,0,3.569-.595A13.723,13.723,0,0,0-51.21,3.3l-1.784-6.05a2.241,2.241,0,0,1-.085-.527c0-.731.544-1.156,1.444-1.156h1.767l.663,2.277C-48.525.1-47.59.75-44.922.75c.187,0,.272-.017.272-.034V-1.34Zm-15.8,9.313a1.219,1.219,0,0,0,1.241,1.207,1.211,1.211,0,0,0,1.207-1.207,1.2,1.2,0,0,0-1.207-1.224A1.212,1.212,0,0,0-60.726,7.973Zm3.348,0a1.2,1.2,0,0,0,1.207,1.207,1.215,1.215,0,0,0,1.224-1.207,1.208,1.208,0,0,0-1.224-1.224A1.194,1.194,0,0,0-57.379,7.973Zm26-15.549v5.71a2.928,2.928,0,0,1-1.716.527,3.078,3.078,0,0,1-1.716-.51V-5.656h-2.022V-1.85a3.078,3.078,0,0,1-1.716.51,2.928,2.928,0,0,1-1.716-.527v-3.79h-2.022V-1.9a6.046,6.046,0,0,1-2.634.561h-.272V.716c0,.017.085.034.272.034h.017a6.78,6.78,0,0,0,3.586-.918A4.624,4.624,0,0,0-38.5.75a4.481,4.481,0,0,0,2.736-.9,4.419,4.419,0,0,0,2.7.9,5.112,5.112,0,0,0,3.7-1.512V-7.577Zm-5.574-3.4A1.11,1.11,0,0,0-35.83-9.854a1.117,1.117,0,0,0,1.1-1.122,1.113,1.113,0,0,0-1.1-1.1A1.106,1.106,0,0,0-36.952-10.975ZM-38.481-8.6a1.106,1.106,0,0,0,1.122,1.1,1.1,1.1,0,0,0,1.1-1.1,1.106,1.106,0,0,0-1.1-1.122A1.11,1.11,0,0,0-38.481-8.6Zm3.076,0a1.11,1.11,0,0,0,1.139,1.1,1.078,1.078,0,0,0,1.088-1.1,1.092,1.092,0,0,0-1.088-1.122A1.124,1.124,0,0,0-35.405-8.6ZM-8.1-1.34a5.993,5.993,0,0,1-2.651-.544v-9.772H-12.77V2.314a8.281,8.281,0,0,1-3.518.782c-2.7,0-4.062-1.275-4.062-3.824a7.7,7.7,0,0,1,.221-1.818l-1.852-.34A10.447,10.447,0,0,0-22.32-.32c0,3.484,2.141,5.489,5.88,5.489a10.361,10.361,0,0,0,3.178-.493A9.626,9.626,0,0,0-10.747,3.5V.275A7.237,7.237,0,0,0-8.113.75H-8.1c.187,0,.272-.017.272-.034V-1.34Zm4.52,0H-8.368V.716c0,.017.085.034.272.034h4.248c.187,0,.272-.017.272-.034Zm4.248,0H-4.12V.716c0,.017.085.034.272.034H.4C.588.75.673.733.673.716Zm8.6-1.275C9.2-5.18,8.065-5.945,5.04-6.812L3.987-7.1l4.758-3.62L7.691-12.029,1.573-7.3,2.032-5.69l2.073.561c2.6.765,3.059,1.088,3.144,2.583V-1.9a8.085,8.085,0,0,1-3.076.561H.129V.716C.129.733.214.75.4.75H3.953A15.1,15.1,0,0,0,6.824.462,8.606,8.606,0,0,0,9.272-.354Z" transform="translate(170.864 14.204)"/></g></g></g></svg>