<svg xmlns="http://www.w3.org/2000/svg" xmlns:xlink="http://www.w3.org/1999/xlink" width="193.172" height="62.016" viewBox="0 0 193.172 62.016"><defs><style>.a{fill:url(#a);}.b{fill:#1eaf62;}</style><linearGradient id="a" x1="1" y1="0.5" x2="0" y2="0.5" gradientUnits="objectBoundingBox"><stop offset="0" stop-color="#3f72dc"/><stop offset="1" stop-color="#5989ec"/></linearGradient></defs><g transform="translate(-1074 -31)"><path class="a" d="M-192.738-7.417H-196.2v-7.03a15.872,15.872,0,0,0-6.448-1.411c-5.092,0-7.8,2.961-7.8,7.14,0,3.985,3.017,6.974,8.718,6.974h8.552c.3,0,.443-.028.443-.055Zm-10.129,0c-1.467,0-2.269-.581-2.269-1.661,0-1.218.858-1.8,2.1-1.8a3.311,3.311,0,0,1,1.577.36v3.1Zm-5.286-12.454a2.61,2.61,0,0,0,2.629,2.629,2.6,2.6,0,0,0,2.6-2.629,2.6,2.6,0,0,0-2.6-2.629A2.61,2.61,0,0,0-208.153-19.871Zm5.784,0a2.61,2.61,0,0,0,2.629,2.629,2.6,2.6,0,0,0,2.6-2.629,2.6,2.6,0,0,0-2.6-2.629A2.61,2.61,0,0,0-202.369-19.871Zm12.2,3.681V-7.8a9.025,9.025,0,0,1-3.017.387h-.443V-1.8c0,.028.138.055.443.055h.028c3.792,0,6.808-1.3,8.247-3.072V-16.19Zm-3.6,18.459A2.611,2.611,0,0,0-191.133,4.9a2.6,2.6,0,0,0,2.6-2.629,2.6,2.6,0,0,0-2.6-2.629A2.611,2.611,0,0,0-193.762,2.269Zm5.784,0A2.611,2.611,0,0,0-185.349,4.9a2.6,2.6,0,0,0,2.6-2.629,2.6,2.6,0,0,0-2.6-2.629A2.611,2.611,0,0,0-187.978,2.269Zm19.4-12.565c-.138-5.2-1.937-6.587-8.911-6.67h-2.546v5.258h3.847c1.411,0,2.352.5,2.352,1.688v2.6h-8.3v5.673h13.561Zm20.618,2.878h-3.6v-7.03a15.872,15.872,0,0,0-6.448-1.411c-5.092,0-7.8,3.017-7.8,7.2,0,3.985,2.8,6.919,8.5,6.919h.5C-156.843-.332-157.59.47-160.109.47a17.194,17.194,0,0,1-4.428-.664l-.969,5.065a19.4,19.4,0,0,0,5.231.72,9.842,9.842,0,0,0,6.006-1.716c1.522-1.135,2.408-3.017,2.657-5.618h3.21c.3,0,.443-.028.443-.055Zm-10.268,0c-1.467,0-2.269-.637-2.269-1.744,0-1.218.8-1.8,2.131-1.8a3.968,3.968,0,0,1,1.55.3v3.238Zm29.253,0h-5.037a6.671,6.671,0,0,0,2.38-5.092,4.372,4.372,0,0,0-2.02-3.985,9.506,9.506,0,0,0-5.231-1.3,19.106,19.106,0,0,0-7.03,1.356l-.941,4.179,3.266,4.843h-5.258V-1.8c0,.028.138.055.443.055h18.985c.3,0,.443-.028.443-.055Zm-10.074-5.12c1.245,0,2.02.637,2.02,1.661a3.122,3.122,0,0,1-1.91,2.6l-1.854-3.9A5.275,5.275,0,0,1-139.048-12.537Zm38.524,5.12A9.025,9.025,0,0,1-103.54-7.8V-14.2H-108.8v6.476a4.833,4.833,0,0,1-1.771.3,5.053,5.053,0,0,1-1.771-.3v-5.231H-117.6v5.231a4.833,4.833,0,0,1-1.771.3,5.053,5.053,0,0,1-1.771-.3v-5.231H-126.4V-7.8a9.025,9.025,0,0,1-3.017.387h-.443V-1.8c0,.028.138.055.443.055h.028A10.625,10.625,0,0,0-123.882-3.1a7.867,7.867,0,0,0,4.511,1.356,7.75,7.75,0,0,0,4.456-1.328,7.784,7.784,0,0,0,4.345,1.328,9.9,9.9,0,0,0,4.982-1.19,10.648,10.648,0,0,0,5.037,1.19h.028c.3,0,.443-.028.443-.055V-7.417Zm3.017-14.53V-7.8a9.025,9.025,0,0,1-3.017.387h-.443V-1.8c0,.028.138.055.443.055h.028a10.627,10.627,0,0,0,4.954-1.135,9.013,9.013,0,0,0,3.293-2.8V-21.946Zm8.579,20.2h5.258v-20.2h-5.258Zm33.487-4.843a4.478,4.478,0,0,1-2.768-2.8q-.415-1-.913-2.574c-1.3-4.124-3.238-5.839-7.113-5.839a10.281,10.281,0,0,0-6.587,2.352l2.823,3.6a5.79,5.79,0,0,1,3.183-1.024c2.02.138,2.269.858,3.1,3.183a6.564,6.564,0,0,0,1.273,2.408h-3.21c-5.867,0-8.884,2.685-8.884,7.555,0,4.649,3.376,7.223,9.576,7.223h2.685V1.827h-4.1c-1.356,0-2.352-.664-2.352-1.8s1-1.771,2.352-1.771h9.465Zm-5.148,8.994a2.61,2.61,0,0,0,2.629,2.629A2.628,2.628,0,0,0-55.33,2.408,2.628,2.628,0,0,0-57.959-.221,2.61,2.61,0,0,0-60.588,2.408Zm7.777-4.151h5.258v-20.2h-5.258Zm19.345-5.673A9.025,9.025,0,0,1-36.483-7.8v-7.777h-5.258V-2.989c0,2.1-.747,3.044-3.293,3.044h-.941L-47,5.424a11.8,11.8,0,0,0,2.159.166A9.038,9.038,0,0,0-39,3.764c1.522-1.218,2.352-3.183,2.491-5.923a10.459,10.459,0,0,0,3.017.415h.028c.3,0,.443-.028.443-.055V-7.417Zm16.19.83a4.5,4.5,0,0,1-2.8-2.823c-.249-.664-.554-1.522-.886-2.546-1.3-4.124-3.238-5.839-7.113-5.839a10.281,10.281,0,0,0-6.587,2.352l2.851,3.6a5.966,5.966,0,0,1,3.155-1.024c2.02.138,2.269.858,3.1,3.183a7.2,7.2,0,0,0,1.162,2.269h-10.9V-1.8c0,.028.138.055.443.055h16.107Z" transform="translate(1284.45 53.5)"/><g transform="translate(4.173 -5)"><path class="b" d="M16,20,6,10H26Z" transform="translate(1272.827 70) rotate(90)"/><path d="M-153.36-1.968a5.57,5.57,0,0,1-2.48-.512v-9.2h-1.9v9.168a6.784,6.784,0,0,1-3.008.544H-166.1q-2.88,0-2.88-2.448a6.964,6.964,0,0,1,.3-1.9l-1.744-.32a9.5,9.5,0,0,0-.448,2.784c0,2.8,1.7,3.856,4.64,3.856h5.184a9.1,9.1,0,0,0,4.272-.88,6.663,6.663,0,0,0,3.392.88h.016c.176,0,.256-.016.256-.032V-1.968Zm-8.368-4.784h-.928c-.688,0-1.008-.3-1.008-.7a.559.559,0,0,1,.592-.608.707.707,0,0,1,.512.176l.688-.736a1.888,1.888,0,0,0-1.312-.528,1.435,1.435,0,0,0-1.52,1.44,1.455,1.455,0,0,0,.352.96h-.768v1.264h3.392ZM-149.1-1.968h-4.512V-.032c0,.016.08.032.256.032h4c.176,0,.256-.016.256-.032Zm4,0h-4.512V-.032c0,.016.08.032.256.032h4c.176,0,.256-.016.256-.032ZM-140.976-8h-1.9v5.616a6.543,6.543,0,0,1-2.48.416h-.256V-.032c0,.016.08.032.256.032h.016a8.982,8.982,0,0,0,2.464-.336,6.411,6.411,0,0,0,1.9-.832Zm-4.336,10.32a1.148,1.148,0,0,0,1.168,1.136,1.14,1.14,0,0,0,1.136-1.136,1.134,1.134,0,0,0-1.136-1.152A1.141,1.141,0,0,0-145.312,2.32Zm3.152,0a1.13,1.13,0,0,0,1.136,1.136,1.144,1.144,0,0,0,1.152-1.136,1.137,1.137,0,0,0-1.152-1.152A1.124,1.124,0,0,0-142.16,2.32Zm13.2-4.288h-2.448V-4.256c0-2.736-1.152-3.728-4.544-3.728h-1.328v1.9h1.76c1.6,0,2.208.432,2.208,1.9v2.208h-5.456V0h9.552c.176,0,.256-.016.256-.032ZM-124.832-8h-1.9v5.616a6.543,6.543,0,0,1-2.48.416h-.256V-.032c0,.016.08.032.256.032h.016a8.982,8.982,0,0,0,2.464-.336,6.412,6.412,0,0,0,1.9-.832Zm-4.336,10.32A1.148,1.148,0,0,0-128,3.456a1.14,1.14,0,0,0,1.136-1.136A1.134,1.134,0,0,0-128,1.168,1.141,1.141,0,0,0-129.168,2.32Zm3.152,0a1.13,1.13,0,0,0,1.136,1.136,1.144,1.144,0,0,0,1.152-1.136,1.137,1.137,0,0,0-1.152-1.152A1.124,1.124,0,0,0-126.016,2.32Zm21.232-4.288a5.217,5.217,0,0,1-2.128-.384.494.494,0,0,1-.352-.5V-6.032h-1.84v7.5a7.8,7.8,0,0,1-3.312.736c-2.56,0-3.936-1.264-3.936-3.552a6.928,6.928,0,0,1,.208-1.7l-1.744-.32a9.489,9.489,0,0,0-.32,2.384c0,3.152,2.08,5.136,5.584,5.136a10.455,10.455,0,0,0,5.3-1.5V-.56A5.454,5.454,0,0,0-104.8,0h.016c.176,0,.256-.016.256-.032V-1.968Zm-9.36-4.464a1.151,1.151,0,0,0,1.168,1.152,1.147,1.147,0,0,0,1.152-1.152A1.151,1.151,0,0,0-112.976-7.6,1.154,1.154,0,0,0-114.144-6.432Zm13.5,4.464h-4.512V-.032c0,.016.08.032.256.032h4c.176,0,.256-.016.256-.032Zm4,0h-4.512V-.032c0,.016.08.032.256.032h4c.176,0,.256-.016.256-.032Zm6.592,0a5.547,5.547,0,0,1-2.464-.512V-8h-1.9v5.52a5.57,5.57,0,0,1-2.48.512h-.256V-.032c0,.016.08.032.256.032h.016a6.68,6.68,0,0,0,3.408-.88A6.764,6.764,0,0,0-90.064,0h.016c.176,0,.256-.016.256-.032V-1.968ZM-96.16,2.32a1.148,1.148,0,0,0,1.168,1.136A1.14,1.14,0,0,0-93.856,2.32a1.134,1.134,0,0,0-1.136-1.152A1.141,1.141,0,0,0-96.16,2.32Zm3.152,0a1.13,1.13,0,0,0,1.136,1.136A1.144,1.144,0,0,0-90.72,2.32a1.137,1.137,0,0,0-1.152-1.152A1.124,1.124,0,0,0-93.008,2.32ZM-85.664-8h-1.9v5.616a6.543,6.543,0,0,1-2.48.416H-90.3V-.032c0,.016.08.032.256.032h.016a8.982,8.982,0,0,0,2.464-.336,6.412,6.412,0,0,0,1.9-.832ZM-88.432,2.32a1.154,1.154,0,0,0,1.168,1.168A1.151,1.151,0,0,0-86.112,2.32a1.137,1.137,0,0,0-1.152-1.152A1.141,1.141,0,0,0-88.432,2.32ZM-74.7-1.968c-1.072-.112-1.744-.624-1.744-1.712a1.373,1.373,0,0,1,1.44-1.536,1.644,1.644,0,0,1,1.12.416l1.28-1.2a3.7,3.7,0,0,0-2.5-.928A2.933,2.933,0,0,0-78.16-3.9a2.814,2.814,0,0,0,.688,1.936h-1.552V0h6.64V-1.968Zm22.416,0c-1.6,0-2.048-.336-2.368-1.5L-55.6-6.688h-3.408c-1.68,0-2.88.944-2.88,2.48a3.787,3.787,0,0,0,.176,1.1l1.376,4.544a8.474,8.474,0,0,1-1.776.528,9.518,9.518,0,0,1-2.064.24c-2.576,0-3.968-1.264-3.968-3.568a6,6,0,0,1,.208-1.664L-69.68-3.36A9.711,9.711,0,0,0-70-.96c0,3.136,2.112,5.12,5.68,5.12a10.874,10.874,0,0,0,3.36-.56,12.921,12.921,0,0,0,2.752-1.2l-1.68-5.7a2.11,2.11,0,0,1-.08-.5c0-.688.512-1.088,1.36-1.088h1.664l.624,2.144C-55.68-.608-54.8,0-52.288,0c.176,0,.256-.016.256-.032V-1.968ZM-67.168,6.8A1.148,1.148,0,0,0-66,7.936,1.14,1.14,0,0,0-64.864,6.8,1.134,1.134,0,0,0-66,5.648,1.141,1.141,0,0,0-67.168,6.8Zm3.152,0A1.13,1.13,0,0,0-62.88,7.936,1.144,1.144,0,0,0-61.728,6.8,1.137,1.137,0,0,0-62.88,5.648,1.124,1.124,0,0,0-64.016,6.8Zm24.48-14.64v5.376a2.756,2.756,0,0,1-1.616.5,2.9,2.9,0,0,1-1.616-.48V-6.032h-1.9v3.584a2.9,2.9,0,0,1-1.616.48,2.756,2.756,0,0,1-1.616-.5V-6.032h-1.9V-2.5a5.693,5.693,0,0,1-2.48.528h-.256V-.032c0,.016.08.032.256.032h.016A6.383,6.383,0,0,0-48.9-.864,4.354,4.354,0,0,0-46.24,0a4.219,4.219,0,0,0,2.576-.848A4.16,4.16,0,0,0-41.12,0a4.813,4.813,0,0,0,3.488-1.424V-7.84Zm-5.248-3.2a1.045,1.045,0,0,0,1.056,1.056,1.052,1.052,0,0,0,1.04-1.056,1.048,1.048,0,0,0-1.04-1.04A1.042,1.042,0,0,0-44.784-11.04Zm-1.44,2.24a1.042,1.042,0,0,0,1.056,1.04,1.038,1.038,0,0,0,1.04-1.04,1.042,1.042,0,0,0-1.04-1.056A1.045,1.045,0,0,0-46.224-8.8Zm2.9,0a1.045,1.045,0,0,0,1.072,1.04A1.015,1.015,0,0,0-41.232-8.8a1.028,1.028,0,0,0-1.024-1.056A1.059,1.059,0,0,0-43.328-8.8Zm25.712,6.832a5.642,5.642,0,0,1-2.5-.512v-9.2h-1.9V1.472a7.8,7.8,0,0,1-3.312.736c-2.544,0-3.824-1.2-3.824-3.6A7.248,7.248,0,0,1-28.944-3.1l-1.744-.32a9.836,9.836,0,0,0-.32,2.416c0,3.28,2.016,5.168,5.536,5.168A9.755,9.755,0,0,0-22.48,3.7a9.063,9.063,0,0,0,2.368-1.1V-.448A6.814,6.814,0,0,0-17.632,0h.016c.176,0,.256-.016.256-.032V-1.968Zm4.256,0h-4.512V-.032c0,.016.08.032.256.032h4c.176,0,.256-.016.256-.032Zm4,0h-4.512V-.032c0,.016.08.032.256.032h4c.176,0,.256-.016.256-.032Zm8.1-1.2C-1.328-5.584-2.4-6.3-5.248-7.12l-.992-.272L-1.76-10.8l-.992-1.232-5.76,4.448.432,1.52,1.952.528c2.448.72,2.88,1.024,2.96,2.432V-2.5a7.612,7.612,0,0,1-2.9.528H-9.872V-.032c0,.016.08.032.256.032h3.344a14.22,14.22,0,0,0,2.7-.272,8.1,8.1,0,0,0,2.3-.768Z" transform="translate(1240.691 90.08)"/></g></g></svg>