<?xml version="1.0" standalone="no"?>
<!DOCTYPE svg PUBLIC "-//W3C//DTD SVG 20010904//EN"
 "http://www.w3.org/TR/2001/REC-SVG-20010904/DTD/svg10.dtd">
<svg version="1.0" xmlns="http://www.w3.org/2000/svg"
 width="387.000000pt" height="387.000000pt" viewBox="0 0 387.000000 387.000000"
 preserveAspectRatio="xMidYMid meet">
<metadata>
Created by potrace 1.14, written by Peter Selinger 2001-2017
</metadata>
<g transform="translate(0.000000,387.000000) scale(0.100000,-0.100000)"
fill="#000000" stroke="none">
<path d="M68 2548 c-16 -13 -22 -29 -19 -55 0 -7 12 -20 26 -29 23 -15 27 -15
50 0 30 20 34 62 8 82 -23 17 -45 17 -65 2z"/>
<path d="M176 2541 c-29 -32 -1 -92 42 -85 6 1 17 2 22 3 6 0 15 13 21 27 21
56 -45 99 -85 55z"/>
<path d="M2258 2408 l-3 -143 -55 0 -55 0 -5 65 -5 65 -50 0 -50 0 -3 -68 -3
-68 -32 3 c-30 3 -32 6 -34 43 -1 22 -2 46 -2 53 -1 8 -18 12 -51 12 -41 0
-50 -3 -51 -17 -1 -10 -2 -34 -2 -53 -2 -31 -6 -35 -31 -38 -36 -4 -45 10 -40
65 l3 43 -54 0 -54 0 -3 -52 -3 -53 -75 -3 c-41 -1 -70 1 -63 6 21 13 42 78
37 108 -7 40 -38 70 -85 82 -73 18 -193 -3 -203 -36 -14 -47 -13 -73 3 -94 10
-13 23 -33 30 -45 12 -23 11 -23 -64 -23 l-75 0 0 69 c0 75 -1 77 -46 86 -104
22 -185 3 -221 -51 -23 -36 -23 -119 1 -156 20 -31 69 -56 115 -60 38 -3 47
-13 31 -33 -9 -10 -29 -13 -75 -10 -69 5 -66 7 -80 -61 -7 -37 7 -44 95 -44
78 0 135 29 156 77 9 21 20 45 24 53 6 12 46 15 251 16 162 0 254 5 272 12 18
8 35 9 45 3 32 -17 85 -20 124 -7 32 11 45 11 77 0 39 -13 100 -11 128 5 9 5
32 3 57 -4 53 -16 115 -11 164 14 66 34 67 36 67 218 l1 163 -53 0 -52 0 -3
-142z m-797 -65 c8 -9 13 -19 11 -22 -7 -13 -35 -41 -42 -41 -6 0 -30 59 -30
73 0 14 48 6 61 -10z m-393 -51 c3 -26 0 -32 -17 -32 -49 0 -71 37 -33 59 29
18 47 8 50 -27z"/>
<path d="M2430 2347 l0 -204 53 1 52 1 0 200 0 200 -52 3 -53 3 0 -204z"/>
<path d="M3150 2351 c0 -218 -3 -208 65 -207 l40 1 3 203 2 202 -54 0 -55 0
-1 -199z"/>
<path d="M2845 2462 c-36 -7 -85 -34 -85 -46 0 -6 12 -24 26 -39 22 -26 28
-28 54 -19 46 17 63 9 87 -39 12 -24 22 -48 23 -54 0 -5 -26 -11 -58 -11 -119
-3 -176 -56 -169 -158 3 -51 8 -63 35 -87 38 -34 97 -51 160 -47 l47 3 0 53
c0 28 -4 52 -10 53 -5 0 -28 2 -50 3 -48 2 -65 11 -65 36 0 30 27 37 132 35
l97 -2 16 46 c15 44 15 46 -8 67 -13 12 -29 37 -36 55 -29 77 -52 119 -74 133
-24 16 -87 25 -122 18z"/>
<path d="M3600 2460 c-14 -4 -40 -15 -58 -24 l-33 -17 33 -35 c31 -32 35 -34
66 -23 27 9 37 8 57 -5 14 -9 25 -22 25 -29 0 -6 7 -25 15 -40 l14 -28 -117 3
-117 3 -3 78 c-2 42 -7 78 -12 78 -13 2 -44 2 -72 0 -23 -1 -23 -3 -24 -141
-1 -152 -7 -170 -54 -170 -24 0 -29 -5 -39 -44 -16 -65 -15 -66 34 -66 95 0
151 48 164 140 1 3 81 5 178 5 l177 0 15 47 c14 45 13 47 -11 70 -14 13 -36
51 -48 86 -23 63 -65 111 -98 113 -9 1 -28 2 -42 3 -14 2 -36 0 -50 -4z"/>
<path d="M609 2440 c0 -5 -1 -29 -1 -52 l-1 -42 50 -2 c64 -1 73 -8 73 -50 l0
-34 -80 0 c-44 0 -81 -3 -81 -7 -4 -22 -5 -89 -2 -98 2 -7 53 -11 136 -10
l132 0 1 112 c1 138 -10 164 -79 182 -56 14 -147 15 -148 1z"/>
<path d="M409 2435 c-1 0 -2 -38 -3 -85 l-2 -85 -53 -3 c-31 -2 -57 1 -61 7
-3 6 -5 38 -4 70 l2 60 -35 12 c-131 43 -241 -5 -250 -108 -6 -63 20 -111 73
-137 33 -17 61 -20 189 -20 141 0 153 1 195 25 l45 24 3 121 3 121 -51 -1
c-27 -1 -51 -1 -51 -1z m-245 -111 c10 -4 16 -18 16 -36 0 -27 -2 -29 -32 -26
-38 4 -51 34 -22 55 21 15 18 15 38 7z"/>
<path d="M357 2108 c-26 -19 -29 -56 -7 -78 25 -25 52 -25 73 -2 28 30 2 92
-38 92 -6 0 -19 -6 -28 -12z"/>
<path d="M472 2104 c-30 -20 -29 -59 3 -80 45 -29 97 14 72 61 -19 38 -41 43
-75 19z"/>
<path d="M3030 2107 c-37 -18 -40 -73 -6 -89 41 -18 78 3 74 43 -4 43 -34 63
-68 46z"/>
<path d="M3757 1659 l-98 -97 95 -98 c53 -53 99 -95 101 -92 3 3 4 91 3 195
l-3 190 -98 -98z"/>
<path d="M265 1707 c-3 -6 -6 -50 -7 -97 l-3 -85 -100 0 c-96 0 -100 1 -112
25 -8 17 -9 28 -1 37 7 9 6 14 -5 19 -25 9 -37 -5 -37 -44 0 -69 30 -85 149
-82 120 3 150 3 279 0 71 -1 125 3 143 10 28 12 29 15 29 81 0 62 -2 69 -20
69 -16 0 -19 -8 -22 -57 l-3 -58 -125 0 -125 0 -3 92 c-2 70 -6 92 -18 97 -8
3 -17 0 -19 -7z"/>
<path d="M2524 1709 c-9 -15 11 -33 30 -26 9 4 13 13 10 22 -7 17 -30 20 -40
4z"/>
<path d="M2991 1711 c-10 -6 -13 -40 -13 -129 -1 -66 -4 -126 -8 -132 -5 -7
-28 -13 -53 -13 -55 0 -80 21 -80 68 0 24 -6 35 -19 38 -13 4 -18 -1 -19 -16
-5 -91 32 -133 117 -130 63 2 99 22 97 54 l-2 26 150 1 c82 0 167 3 189 7 35
6 40 10 41 33 3 61 -15 87 -64 98 l-32 7 42 36 c28 24 40 40 34 49 -5 9 -22 1
-64 -30 -67 -51 -72 -73 -19 -88 51 -14 65 -24 60 -46 -3 -18 -15 -19 -168
-19 l-164 0 -1 92 c0 51 -3 94 -6 97 -2 3 -11 1 -18 -3z"/>
<path d="M2502 1668 c-16 -16 -15 -25 2 -31 21 -8 40 17 23 31 -10 9 -17 8
-25 0z"/>
<path d="M2563 1673 c-18 -6 -16 -30 2 -37 9 -3 18 1 22 10 7 18 -7 33 -24 27z"/>
<path d="M126 1644 c-3 -9 -4 -20 -1 -24 3 -5 0 -12 -7 -16 -15 -10 20 -23 44
-16 17 4 27 33 11 31 -31 -5 -36 3 -13 21 l25 20 -26 0 c-16 0 -29 -7 -33 -16z"/>
<path d="M677 1633 c-15 -15 -6 -33 17 -33 44 0 56 -10 56 -46 l0 -34 -50 0
c-36 0 -52 -4 -57 -15 -3 -9 -2 -19 1 -23 11 -10 220 -4 250 8 25 9 26 13 26
80 0 53 -3 70 -14 70 -18 0 -26 -22 -26 -76 l0 -44 -45 0 -45 0 0 39 c0 31 -6
44 -26 60 -26 20 -74 28 -87 14z"/>
<path d="M1528 1583 l-3 -58 -125 0 -125 0 0 38 c1 31 -2 37 -20 37 -20 0 -21
-5 -20 -75 1 -84 -4 -89 -75 -87 -43 2 -73 34 -68 73 3 20 0 29 -14 32 -18 5
-19 2 -23 -48 -2 -27 21 -72 43 -84 31 -17 77 -18 125 -4 45 13 47 15 47 49 0
21 4 33 10 29 6 -4 61 -6 123 -5 61 1 143 1 181 1 38 -1 81 3 96 9 25 10 26
15 26 78 -1 55 -4 67 -18 70 -18 4 -19 1 -23 -58 -1 -19 -3 -41 -4 -47 -1 -16
-77 -17 -87 -2 -3 6 -6 33 -5 60 0 42 -2 49 -19 49 -16 0 -19 -8 -22 -57z"/>
<path d="M2635 1628 c-3 -7 -6 -33 -8 -58 -2 -43 -3 -45 -32 -45 -28 0 -30 2
-30 38 1 31 -2 37 -21 37 -15 0 -21 -6 -21 -22 -1 -57 -2 -59 -30 -56 -24 3
-28 8 -31 41 -2 28 -8 37 -22 37 -14 0 -20 -9 -22 -37 -3 -37 -4 -38 -43 -38
-37 0 -40 3 -54 40 -8 22 -18 42 -23 45 -4 3 -29 3 -54 0 -64 -7 -73 -23 -52
-100 17 -64 16 -67 -22 -70 -73 -6 -91 -1 -104 32 -8 18 -13 40 -11 49 2 10
-4 19 -15 22 -23 6 -30 -22 -17 -72 11 -45 26 -59 74 -69 40 -9 125 6 144 25
7 7 4 31 -7 71 -19 67 -18 70 15 77 18 3 26 -4 41 -40 10 -24 27 -45 37 -48
10 -3 81 -5 158 -5 176 0 180 3 180 88 0 42 -4 65 -12 67 -7 3 -15 -1 -18 -9z"/>
<path d="M1137 1616 c-8 -19 15 -37 32 -26 17 10 7 40 -13 40 -7 0 -16 -6 -19
-14z"/>
<path d="M1885 1608 c-28 -16 -33 -27 -30 -57 1 -14 -3 -30 -11 -36 -24 -18 0
-34 51 -36 71 -2 75 -1 75 20 0 16 -8 20 -37 23 -33 3 -38 6 -38 28 0 19 6 26
25 28 34 5 49 20 30 32 -20 13 -40 12 -65 -2z"/>
<path d="M521 1451 c-17 -11 -7 -41 13 -41 21 0 27 15 13 33 -8 11 -17 14 -26
8z"/>
<path d="M581 1447 c-14 -17 3 -41 23 -34 9 4 16 13 16 21 0 19 -26 28 -39 13z"/>
<path d="M839 1444 c-9 -11 -9 -18 -1 -26 14 -14 42 -3 42 16 0 20 -27 27 -41
10z"/>
<path d="M907 1447 c-11 -8 -14 -17 -8 -26 11 -17 41 -7 41 13 0 21 -15 27
-33 13z"/>
<path d="M1499 1444 c-9 -11 -9 -18 -1 -26 14 -14 42 -3 42 16 0 20 -27 27
-41 10z"/>
<path d="M1564 1445 c-3 -8 -3 -19 1 -25 11 -17 35 -11 35 9 0 23 -29 36 -36
16z"/>
<path d="M1661 1450 c-17 -10 -7 -40 13 -40 7 0 16 6 19 14 8 19 -15 37 -32
26z"/>
<path d="M2081 1357 c-14 -17 3 -41 23 -34 9 4 16 13 16 21 0 19 -26 28 -39
13z"/>
<path d="M2144 1356 c-7 -19 3 -36 22 -36 10 0 14 8 12 22 -4 26 -26 36 -34
14z"/>
</g>
</svg>
