<svg xmlns="http://www.w3.org/2000/svg" width="106.216" height="26.74" viewBox="0 0 106.216 26.74"><defs><style>.a{fill:#fff;}</style></defs><path class="a" d="M25.638,16.668H23.656V3.811h1.92V5.417h.036a3.436,3.436,0,0,1,2.964-1.709l.112,0c2.471,0,4.068,1.936,4.068,4.932s-1.583,4.932-4.032,4.932c-.057,0-.114,0-.171,0a3.272,3.272,0,0,1-2.869-1.7h-.046v4.785h0ZM25.63,8.641c0,1.945,1.019,3.251,2.534,3.251,1.551,0,2.554-1.275,2.554-3.251s-1-3.241-2.554-3.241C26.649,5.4,25.63,6.7,25.63,8.641ZM15,16.668H13.023V3.811h1.92V5.417h.036a3.438,3.438,0,0,1,2.964-1.709l.112,0c2.471,0,4.068,1.936,4.068,4.932s-1.583,4.932-4.032,4.932c-.057,0-.114,0-.171,0a3.272,3.272,0,0,1-2.869-1.7h-.046v4.785h0ZM15,8.641c0,1.945,1.018,3.251,2.534,3.251,1.551,0,2.554-1.275,2.554-3.251s-1-3.241-2.554-3.241C16.015,5.4,15,6.7,15,8.641ZM37.754,9.779h2.03c.147,1.315,1.423,2.177,3.167,2.177,1.672,0,2.874-.862,2.874-2.048,0-1.029-.725-1.644-2.442-2.067l-1.718-.414C39.233,6.841,38.1,5.7,38.1,3.857,38.1,1.57,40.1,0,42.925,0c2.8,0,4.719,1.57,4.785,3.857h-2c-.119-1.322-1.213-2.12-2.81-2.12s-2.691.808-2.691,1.983c0,.936.7,1.488,2.407,1.91l1.46.358c2.719.642,3.848,1.734,3.848,3.673,0,2.479-1.975,4.032-5.116,4.032C39.866,13.693,37.882,12.177,37.754,9.779ZM71.27,8.688c0-3.035,1.756-5,4.471-5,2.686,0,4.354,1.826,4.354,4.765v.679H73.272v.12a2.514,2.514,0,0,0,2.5,2.737h.094c.068.006.137.01.206.01A2.176,2.176,0,0,0,78.1,10.635h1.883c-.265,1.741-1.976,2.957-4.16,2.957C73.015,13.592,71.27,11.713,71.27,8.688ZM74,6.013a2.462,2.462,0,0,0-.719,1.738h4.831A2.324,2.324,0,0,0,75.79,5.3h-.062A2.425,2.425,0,0,0,74,6.013ZM55.1,8.642a5.193,5.193,0,0,1,1.244-3.615,4.846,4.846,0,0,1,6.68,0,5.2,5.2,0,0,1,1.241,3.615c0,3.053-1.756,4.95-4.583,4.95S55.1,11.7,55.1,8.642Zm2.021,0c0,2.075.957,3.315,2.561,3.315s2.562-1.24,2.562-3.315-.957-3.316-2.562-3.316S57.122,6.565,57.122,8.642Zm-4.195,4.884c-1.956,0-2.719-.735-2.719-2.608V5.381H48.8V3.811h1.405V1.525H52.2V3.811h1.837v1.57H52.2v5.326c0,.828.368,1.213,1.175,1.213a6.2,6.2,0,0,0,.653-.046v1.562a5.508,5.508,0,0,1-1,.092ZM2.139,13.473H0L4.785.221H7.007l4.784,13.25H9.615L8.4,9.89H3.353L2.14,13.472h0ZM3.875,8.237h4L5.905,2.425H5.851ZM65.9,13.472V3.811h1.891V5.455h.046A2.305,2.305,0,0,1,70.163,3.71a3.045,3.045,0,0,1,.679.074V5.638a2.77,2.77,0,0,0-.891-.119,2,2,0,0,0-2.066,2.222v5.731Z" transform="translate(26.12 10.072)"/><path class="a" d="M71.643,6.773h-.056a2.183,2.183,0,0,1-2.164-2.482,2.217,2.217,0,0,1,2.2-2.51h.019c1.343,0,2.144.906,2.144,2.422v.331H70.388v.053a1.271,1.271,0,0,0,1.267,1.377h.013a1.11,1.11,0,0,0,.137.009,1.153,1.153,0,0,0,1.006-.592h.913a1.949,1.949,0,0,1-2.082,1.391Zm-.894-3.824a1.242,1.242,0,0,0-.36.885h2.428A1.159,1.159,0,0,0,71.661,2.59h-.045A1.219,1.219,0,0,0,70.749,2.949Zm-23.2,3.481A2.267,2.267,0,0,1,46.48,4.277a2.276,2.276,0,1,1,4.532,0,2.276,2.276,0,0,1-3.467,2.154Zm-.085-2.154c0,1.052.47,1.655,1.288,1.655s1.289-.6,1.289-1.655-.47-1.651-1.289-1.651S47.461,3.227,47.461,4.277ZM28.325,6.431A2.263,2.263,0,0,1,27.26,4.276a2.277,2.277,0,1,1,4.533,0,2.277,2.277,0,0,1-3.468,2.155ZM28.24,4.276c0,1.052.47,1.655,1.289,1.655s1.289-.6,1.289-1.655-.47-1.651-1.289-1.651S28.24,3.227,28.24,4.276ZM7.477,6.431A2.263,2.263,0,0,1,6.412,4.277a2.276,2.276,0,1,1,4.532,0A2.276,2.276,0,0,1,7.477,6.431ZM7.392,4.277c0,1.052.47,1.655,1.289,1.655s1.289-.6,1.289-1.655S9.5,2.626,8.681,2.626,7.392,3.227,7.392,4.277ZM33.273,6.4a1.456,1.456,0,0,1-.482-1.075c0-.853.635-1.363,1.787-1.435l1.3-.075V3.4c0-.511-.35-.793-.983-.793-.531,0-.9.195-1,.534h-.918c.1-.823.868-1.355,1.964-1.355,1.2,0,1.884.589,1.884,1.614V6.68h-.913V6.005h-.075a1.608,1.608,0,0,1-1.369.756c-.025,0-.05,0-.075,0a1.34,1.34,0,0,1-.152.009A1.445,1.445,0,0,1,33.273,6.4Zm1.434-1.812c-.656.044-.962.265-.962.693s.35.684.891.684a.914.914,0,0,0,.113.006,1.131,1.131,0,0,0,1.13-1.056v-.4ZM40.065,6.76c-1.23,0-1.995-.952-1.995-2.484,0-1.507.783-2.481,1.995-2.481l.072,0a1.579,1.579,0,0,1,1.4.845h.071V0h.949V6.68h-.909V5.922h-.075a1.671,1.671,0,0,1-1.446.839ZM39.05,4.277c0,1.022.48,1.632,1.284,1.632s1.294-.624,1.294-1.628-.5-1.633-1.294-1.633S39.05,3.272,39.05,4.277ZM60.775,5.41V2.7h-.763V1.9h.763V.679h.949V1.9h1.041v.8H61.724v2.47c0,.5.207.724.68.724a3.025,3.025,0,0,0,.361-.022v.79a3.2,3.2,0,0,1-.516.048C61.195,6.707,60.775,6.337,60.775,5.41ZM67.246,6.68V3.813c0-.767-.357-1.156-1.028-1.156a1.121,1.121,0,0,0-1.209,1.218V6.68h-.949V0H65V2.648h.075a1.478,1.478,0,0,1,1.466-.86A1.583,1.583,0,0,1,68.2,3.578v3.1Zm-11.828,0V3.808c0-.772-.336-1.155-1.037-1.155a1.1,1.1,0,0,0-1.148,1.217V6.68h-.948v-4.8H53.2v.763h.071A1.438,1.438,0,0,1,54.7,1.783,1.563,1.563,0,0,1,56.366,3.57V6.68Zm-30.425,0V0h.949V6.68Zm-2.459,0V3.808c0-.772-.336-1.155-1.037-1.155A1.1,1.1,0,0,0,20.35,3.869V6.68H19.4v-4.8h.912v.763h.071a1.438,1.438,0,0,1,1.434-.856A1.562,1.562,0,0,1,23.483,3.57V6.68Zm-6.55,0-.993-3.539h-.075L13.928,6.68h-.974l-1.325-4.8h.962l.86,3.667h.071l.988-3.667h.909l.988,3.667h.075l.857-3.667h.948l-1.32,4.8ZM0,6.68V.314H2.3c.066,0,.134-.008.2-.008A2.816,2.816,0,0,1,5.3,3.478c0,2.035-1.093,3.2-3,3.2Zm.989-.9h1.2c.039,0,.079,0,.118,0A2,2,0,0,0,4.289,3.49,2.005,2.005,0,0,0,2.3,1.211l-.112,0H.989Z" transform="translate(27.447)"/><path class="a" d="M2.484,20.726C.465,17.776-1.106,12.415,1,8.766A5.794,5.794,0,0,1,5.874,5.794c1.546-.031,2.982,1.044,3.932,1.044.933,0,2.706-1.288,4.535-1.1a5.52,5.52,0,0,1,4.349,2.352,5.393,5.393,0,0,0-2.568,4.524A5.212,5.212,0,0,0,19.3,17.411a11.947,11.947,0,0,1-1.654,3.369c-.975,1.458-2,2.882-3.619,2.909-1.575.036-2.1-.928-3.913-.928-1.824,0-2.388.9-3.9.964H6.139C4.633,23.727,3.477,22.145,2.484,20.726ZM9.62,5.471a5.049,5.049,0,0,1,1.246-3.663A5.4,5.4,0,0,1,14.362,0a5.309,5.309,0,0,1-1.215,3.8A4.464,4.464,0,0,1,9.665,5.471Z" transform="translate(0 0.324)"/></svg>