<svg xmlns="http://www.w3.org/2000/svg" xmlns:xlink="http://www.w3.org/1999/xlink" width="111.97" height="26.74" viewBox="0 0 111.97 26.74"><defs><style>.a,.h{fill:#fff;}.b{fill:url(#a);}.c{fill:url(#b);}.d{fill:url(#c);}.e{fill:url(#d);}.f{opacity:0.2;}.g{opacity:0.12;}.h{opacity:0.25;}</style><linearGradient id="a" x1="0.915" y1="0.049" x2="-0.384" y2="0.719" gradientUnits="objectBoundingBox"><stop offset="0" stop-color="#00a0ff"/><stop offset="0.01" stop-color="#00a1ff"/><stop offset="0.26" stop-color="#00beff"/><stop offset="0.51" stop-color="#00d2ff"/><stop offset="0.76" stop-color="#00dfff"/><stop offset="1" stop-color="#00e3ff"/></linearGradient><linearGradient id="b" x1="1.077" y1="0.5" x2="-1.306" y2="0.5" gradientUnits="objectBoundingBox"><stop offset="0" stop-color="#ffe000"/><stop offset="0.41" stop-color="#ffbd00"/><stop offset="0.78" stop-color="orange"/><stop offset="1" stop-color="#ff9c00"/></linearGradient><linearGradient id="c" x1="0.862" y1="0.179" x2="-0.501" y2="1.947" gradientUnits="objectBoundingBox"><stop offset="0" stop-color="#ff3a44"/><stop offset="1" stop-color="#c31162"/></linearGradient><linearGradient id="d" x1="-0.188" y1="-0.541" x2="0.421" y2="0.249" gradientUnits="objectBoundingBox"><stop offset="0" stop-color="#32a071"/><stop offset="0.07" stop-color="#2da771"/><stop offset="0.48" stop-color="#15cf74"/><stop offset="0.8" stop-color="#06e775"/><stop offset="1" stop-color="#00f076"/></linearGradient></defs><path class="a" d="M35.994,16.819a3.991,3.991,0,0,1-3.7-2.483l1.612-.673a2.317,2.317,0,0,0,2.117,1.494c1.426,0,2.245-.9,2.245-2.473v-.6H38.2a2.867,2.867,0,0,1-2.168.989h-.048a4.214,4.214,0,0,1,0-8.417,2.976,2.976,0,0,1,2.216.989h.069V4.951h1.7v7.487a4.525,4.525,0,0,1-1.166,3.355,3.872,3.872,0,0,1-2.79,1.026ZM33.821,8.907a2.549,2.549,0,0,0,2.327,2.551h.006A2.356,2.356,0,0,0,38.4,8.907a2.374,2.374,0,0,0-2.246-2.552A2.548,2.548,0,0,0,33.821,8.907Zm43.2,7.7L78.9,12.447l-3.294-7.5h1.978l2.2,5.361h.06L81.96,4.95h2.058L78.954,16.611ZM45.244,11.895A4.136,4.136,0,0,1,44.05,8.906,3.957,3.957,0,0,1,48,4.7h.007a3.981,3.981,0,0,1,3.6,2.68l.207.445-5.628,2.324a2.135,2.135,0,0,0,1.957,1.278l.081,0h0a2.417,2.417,0,0,0,2.062-1.167l1.434.989a4.177,4.177,0,0,1-3.481,1.86h-.08A4.144,4.144,0,0,1,45.244,11.895Zm2.822-5.56a2.3,2.3,0,0,0-2.2,2.452l3.758-1.562a1.624,1.624,0,0,0-1.455-.894C48.138,6.331,48.1,6.332,48.066,6.335ZM17.77,13.11A4.2,4.2,0,0,1,17.76,4.7h.069a4.12,4.12,0,0,1,2.925,1.207,4.168,4.168,0,0,1,1.22,3,4.21,4.21,0,0,1-4.2,4.2ZM15.7,7.179a2.552,2.552,0,0,0,1.871,4.286c.06,0,.121,0,.19-.007h-.011a2.434,2.434,0,0,0,2.374-2.552A2.552,2.552,0,0,0,15.7,7.179Zm11.289,5.93A4.2,4.2,0,0,1,26.968,4.7h.079a4.119,4.119,0,0,1,2.924,1.207,4.165,4.165,0,0,1,1.22,3,4.209,4.209,0,0,1-4.2,4.2ZM24.922,7.174a2.552,2.552,0,0,0,1.868,4.29c.065,0,.123,0,.179-.006a2.434,2.434,0,0,0,2.374-2.552,2.552,2.552,0,0,0-4.421-1.731Zm-18.13,5.9A6.537,6.537,0,1,1,6.792,0a6.218,6.218,0,0,1,4.48,1.849L10.016,3.11A4.552,4.552,0,0,0,6.782,1.834a4.748,4.748,0,0,0,0,9.5,4.373,4.373,0,0,0,3.294-1.306,3.727,3.727,0,0,0,.989-2.245H6.792V6l6-.05a5.888,5.888,0,0,1,.1,1.118,5.936,5.936,0,0,1-1.544,4.174A5.932,5.932,0,0,1,7.06,13.076C6.971,13.076,6.881,13.074,6.792,13.07Zm62.359-.722a2.877,2.877,0,0,1-.959-2.007A2.468,2.468,0,0,1,69.31,8.279a4.333,4.333,0,0,1,2.443-.717h.017a4.1,4.1,0,0,1,1.912.474V7.908A1.776,1.776,0,0,0,71.7,6.315c-.047,0-.1-.006-.144-.006a1.749,1.749,0,0,0-1.537.916L68.38,6.542a3.446,3.446,0,0,1,3.087-1.9c.069,0,.139,0,.207.006l.05.03c2.242,0,3.748,1.374,3.748,3.422v4.757h-1.78v-.989h-.06a2.589,2.589,0,0,1-2.187,1.194c-.061,0-.124,0-.186-.006s-.141.007-.21.007A2.858,2.858,0,0,1,69.151,12.348Zm2.83-3.283c-.956,0-1.978.345-1.978,1.316,0,.763.886,1.048,1.444,1.048l.049.03A2.247,2.247,0,0,0,73.662,9.48a3.285,3.285,0,0,0-1.6-.417Zm-6.646,3.8V.5h1.85V12.862Zm-7.637,0H55.849V.5h4.431c.092-.007.184-.01.276-.01a3.869,3.869,0,0,1,3.285,1.845,3.828,3.828,0,0,1,0,4,3.871,3.871,0,0,1-3.285,1.845c-.092,0-.184,0-.276-.01H57.7v4.687h0Zm-.009-6.429h2.581l.04.029a2.121,2.121,0,1,0,0-4.242H57.689ZM41.3,12.862V.5H43.15V12.862Z" transform="translate(27.952 9.921)"/><path class="a" d="M3.092,6.207A3.115,3.115,0,0,1,.906.9,2.964,2.964,0,0,1,3.092.006,3.068,3.068,0,0,1,4.308.253a2.46,2.46,0,0,1,.93.663l-.524.524a1.979,1.979,0,0,0-1.622-.7,2.295,2.295,0,0,0-2.3,2.374A2.334,2.334,0,0,0,4.743,4.823a1.873,1.873,0,0,0,.495-1.207H3.092V2.9H5.97a2.412,2.412,0,0,1,.039.445,2.677,2.677,0,0,1-.742,1.978A2.877,2.877,0,0,1,3.2,6.209Zm24.469-.9a3.207,3.207,0,0,1,0-4.4,3.066,3.066,0,0,1,4.352,0,3.191,3.191,0,0,1,0,4.4,3.085,3.085,0,0,1-4.352,0Zm.564-3.9a2.524,2.524,0,0,0,0,3.4,2.284,2.284,0,0,0,3.224,0,2.524,2.524,0,0,0,0-3.4,2.284,2.284,0,0,0-3.224,0ZM37.65,6.079,34.633,1.243V6.079h-.772V.144h.93l2.888,4.619V.144h.762V6.079Zm-15.874,0V.876H20.114V.144h4.075V.876H22.537v5.2Zm-3.383,0V.144h.761V6.079Zm-5.371,0V.876H11.361V.144h4.124V.876h-1.7v5.2Zm-5.944,0V.144h3.462V.876H7.868v1.88H10.3v.712H7.868V5.347h2.67v.732Z" transform="translate(28.698)"/><g transform="translate(0 1.065)"><path class="b" d="M.448.067A1.914,1.914,0,0,0,0,1.412V22.659A1.914,1.914,0,0,0,.448,24l.068.067L12.482,12.18V11.9L.515,0Z" transform="translate(0.006 0.324)"/><path class="c" d="M3.96,8.267,0,4.279V4L3.96,0l.087.048L8.789,2.743c1.352.763,1.352,2.019,0,2.791L4.066,8.219Z" transform="translate(12.369 8.226)"/><path class="d" d="M16.11,4.076,12.034,0,0,12.034a1.574,1.574,0,0,0,2.009.058L16.12,4.076" transform="translate(0.454 12.294)"/><path class="e" d="M16.12,8.35,2.009.334A1.574,1.574,0,0,0,0,.392L12.044,12.426Z" transform="translate(0.444)"/><path class="f" d="M15.994,0,2,7.968a1.613,1.613,0,0,1-1.932,0L0,8.036.068,8.1A1.6,1.6,0,0,0,2,8.1L16.11.087Z" transform="translate(0.454 16.283)"/><path class="g" d="M0,10.735A1.939,1.939,0,0,0,.445,11.9l.067.077-.067.068A1.939,1.939,0,0,1,0,10.735Zm0-.188v.145q0,.022,0,.043Q0,10.641,0,10.546ZM16.354,3.989l4.8-2.734A1.794,1.794,0,0,0,22.118,0a1.691,1.691,0,0,1-.961,1.391L16.44,4.076Z" transform="translate(0.006 12.294)"/><path class="h" d="M2.44.458l18.723,10.7a1.8,1.8,0,0,1,.961,1.256,1.69,1.69,0,0,0-.961-1.391L2.44.323C1.1-.44,0,.2,0,1.742v.145C.029.332,1.1-.305,2.44.458Z" transform="translate(0 0.011)"/></g></svg>