<svg aria-hidden="true" style="position: absolute; width: 0; height: 0; overflow: hidden;" version="1.1" xmlns="http://www.w3.org/2000/svg" xmlns:xlink="http://www.w3.org/1999/xlink">
<defs>
<symbol id="icon-touch" viewBox="0 0 33 32">
<title>touch</title>
<path fill="rgba(63, 114, 220, 0.2)" style="fill: var(--color1, rgba(63, 114, 220, 0.2))" d="M15.515 3.879c0.001-1.427 0.773-2.674 1.921-3.347l0.018-0.010v-0.522h-17.454v15.515h11.636c0.002-2.141 1.738-3.877 3.879-3.879h0zM11.636 8.727h-2.909v2.909h-1.94v-2.909h-2.909v-1.94h2.909v-2.909h1.939v2.909h2.909z"></path>
<path fill="#3f72dc" style="fill: var(--color2, #3f72dc)" d="M31.021 14.545c-0.014-0-0.030-0.001-0.047-0.001-1.037 0-1.877 0.837-1.883 1.873v0.001-1.873c0-1.071-0.868-1.939-1.939-1.939s-1.939 0.868-1.939 1.939v0-2.909c0-1.071-0.868-1.939-1.939-1.939s-1.939 0.868-1.939 1.939v0-7.758c0-1.071-0.868-1.939-1.939-1.939s-1.939 0.868-1.939 1.939v0 14.404c-1.071 0-1.939-0.868-1.939-1.939v0-2.768c-1.071 0-1.939 0.868-1.939 1.939 0 0 0 0 0 0.001v-0 6.303c0.005 4.154 2.905 4.573 2.909 8.727v1.454h13.576v-1.421c0-4.207 2.907-4.676 2.909-8.883v-5.212c-0.001-1.072-0.87-1.94-1.941-1.94-0.003 0-0.006 0-0.008 0h0z"></path>
</symbol>
<symbol id="icon-user" viewBox="0 0 32 32">
<title>user</title>
<path fill="#acacac" style="fill: var(--color1, #acacac)" d="M14.666 18.749v7.917h2.667v-7.917c5.289 0.687 9.332 5.163 9.333 10.584v0h-21.333c0-0 0-0 0-0.001 0-5.421 4.044-9.897 9.279-10.578l0.054-0.006zM16 17.333c-4.418 0-8-3.582-8-8s3.582-8 8-8c4.418 0 8 3.582 8 8v0c0 4.418-3.582 8-8 8v0z"></path>
</symbol>
<symbol id="icon-time" viewBox="0 0 32 32">
<title>time</title>
<path fill="#acacac" style="fill: var(--color1, #acacac)" d="M16 32c-8.837 0-16-7.163-16-16s7.163-16 16-16c8.837 0 16 7.163 16 16v0c0 8.837-7.163 16-16 16v0zM17.6 16v-8h-3.2v11.2h9.6v-3.2z"></path>
</symbol>
<symbol id="icon-all" viewBox="0 0 32 32">
<title>all</title>
<path fill="#1eaf62" style="fill: var(--color1, #1eaf62)" d="M16 29.333c-7.364 0-13.333-5.97-13.333-13.333s5.97-13.333 13.333-13.333c7.364 0 13.333 5.97 13.333 13.333v0c0 7.364-5.97 13.333-13.333 13.333v0zM14.667 14.667h-5.333v2.667h5.333v5.333h2.667v-5.333h5.333v-2.667h-5.333v-5.333h-2.667z"></path>
</symbol>
<symbol id="icon-arrow-down" viewBox="0 0 52 32">
<title>arrow-down</title>
<path  d="M26.183 20.365l20.365-20.365 5.817 5.817-26.183 26.183-26.183-26.183 5.817-5.817z"></path>
</symbol>
<symbol id="icon-add" viewBox="0 0 32 32">
<title>add</title>
<path d="M13.597 0h-12.361c-0.683 0-1.236 0.553-1.236 1.236v0 12.361c0 0.683 0.553 1.236 1.236 1.236v0h12.361c0.683 0 1.236-0.553 1.236-1.236v0-12.361c0-0.683-0.553-1.236-1.236-1.236v0z"></path>
<path d="M30.764 0h-12.361c-0.683 0-1.236 0.553-1.236 1.236v0 12.361c0 0.683 0.553 1.236 1.236 1.236v0h12.361c0.683 0 1.236-0.553 1.236-1.236v-12.361c0-0.683-0.553-1.236-1.236-1.236v0z"></path>
<path d="M13.597 17.167h-12.361c-0.683 0-1.236 0.553-1.236 1.236v12.361c0 0.683 0.553 1.236 1.236 1.236v0h12.361c0.683 0 1.236-0.553 1.236-1.236v0-12.361c0-0.683-0.553-1.236-1.236-1.236v0z"></path>
<path fill="rgba(63, 114, 220, 0.2)" style="fill: var(--color1, rgba(63, 114, 220, 0.2))" d="M30.764 23.348h-4.945v-4.945c-0.014-0.672-0.562-1.211-1.236-1.211s-1.222 0.539-1.236 1.209l-0 0.001v4.945h-4.945c-0.008-0-0.017-0-0.026-0-0.683 0-1.236 0.553-1.236 1.236s0.553 1.236 1.236 1.236c0.009 0 0.018-0 0.027-0l-0.001 0h4.945v4.945c0.014 0.672 0.562 1.211 1.236 1.211s1.222-0.539 1.236-1.209l0-0.001v-4.945h4.945c0.008 0 0.017 0 0.026 0 0.683 0 1.236-0.553 1.236-1.236s-0.553-1.236-1.236-1.236c-0.009 0-0.018 0-0.027 0l0.001-0z"></path>
</symbol>
<symbol id="icon-camel" viewBox="0 0 24 32">
<title>camel</title>
<path  d="M12.171 32c-2.303-0.006-4.216-1.669-4.609-3.859l-0.004-0.029c0.259 0.087 0.557 0.138 0.867 0.138 0.001 0 0.002 0 0.003 0h1.875c0 0 0 0 0.001 0 0.719 0 1.375-0.27 1.871-0.715l-0.003 0.002c0.494 0.442 1.15 0.713 1.869 0.713 0 0 0 0 0.001 0h1.875c0.001 0 0.002 0 0.002 0 0.31 0 0.608-0.050 0.886-0.143l-0.020 0.006c-0.398 2.219-2.311 3.882-4.613 3.888h-0.001z"></path>
<path  d="M5.086 1.813c-0.036 0.019-0.070 0.039-0.106 0.059-1.935 1.078-3.428 2.752-4.251 4.77l-0.023 0.064c-0.444-0.861-0.704-1.878-0.704-2.957 0-1.208 0.327-2.34 0.896-3.312l-0.017 0.031c0.165-0.281 0.466-0.466 0.811-0.466 0.173 0 0.335 0.047 0.474 0.128l-0.004-0.002z"></path>
<path  d="M19.278 1.813c0.036 0.019 0.070 0.039 0.106 0.059 1.935 1.078 3.428 2.752 4.251 4.77l0.023 0.064c0.444-0.86 0.704-1.878 0.704-2.956 0-1.208-0.327-2.34-0.897-3.312l0.017 0.031c-0.165-0.282-0.467-0.468-0.812-0.468-0.172 0-0.334 0.047-0.473 0.128l0.004-0.002z"></path>
<path fill="rgba(63, 114, 220, 0.2)" style="fill: var(--color1, rgba(63, 114, 220, 0.2))" d="M12.171 18.479l-1.206-1.206c-0.171-0.177-0.41-0.286-0.674-0.286-0.518 0-0.938 0.42-0.938 0.938 0 0.265 0.11 0.504 0.286 0.674l0 0 1.6 1.6v5.237c0 0.518-0.42 0.938-0.938 0.938h-1.875c-0.518 0-0.938-0.42-0.938-0.938v0-7.5c0-2.586 2.096-4.682 4.682-4.682s4.682 2.096 4.682 4.682v7.5c0 0.518-0.42 0.938-0.938 0.938h-1.864c-0.518 0-0.938-0.42-0.938-0.938v0-5.237l1.589-1.6c0.163-0.168 0.263-0.398 0.263-0.651 0-0.518-0.42-0.938-0.938-0.938-0.253 0-0.483 0.1-0.651 0.263l0-0z"></path>
<path  d="M12.182 1.998c-4.623 0-9.044 2-10.083 6.536-0.22 0.882-0.636 1.646-1.199 2.276l0.004-0.005c-0.562 0.652-0.905 1.508-0.905 2.443 0 0.982 0.377 1.876 0.995 2.544l-0.002-0.003c0.52 0.527 0.851 1.241 0.882 2.033l0 0.006v1.984c0 0.001 0 0.003 0 0.004 0 2.253 1.59 4.134 3.708 4.584l0.031 0.005v-6.47c-0-0.019-0-0.042-0-0.065 0-3.607 2.924-6.532 6.532-6.532s6.532 2.924 6.532 6.532c0 0.023-0 0.045-0 0.068l0-0.003v6.468c2.169-0.449 3.782-2.33 3.812-4.593l0-0.003v-1.984c0.033-0.796 0.365-1.509 0.885-2.035l-0 0c0.615-0.666 0.993-1.56 0.993-2.542 0-0.936-0.343-1.791-0.909-2.448l0.004 0.005c-0.559-0.624-0.974-1.389-1.186-2.234l-0.008-0.037c-1.039-4.54-5.464-6.535-10.083-6.536zM4.687 13.249c-0.518 0-0.938-0.42-0.938-0.938s0.42-0.938 0.938-0.938c0.518 0 0.938 0.42 0.938 0.938v0c0 0.518-0.42 0.938-0.938 0.938v0zM18.739 12.311c0-0.518 0.42-0.938 0.938-0.938s0.938 0.42 0.938 0.938c0 0.518-0.42 0.938-0.938 0.938v0c-0.518-0-0.937-0.42-0.937-0.938v0z"></path>
</symbol>
<symbol id="icon-car" viewBox="0 0 45 32">
<title>car</title>
<path  d="M8.414 7.533h-3.74c-0.516 0-0.935 0.419-0.935 0.935s0.419 0.935 0.935 0.935h3.74c0.516 0 0.935-0.419 0.935-0.935s-0.419-0.935-0.935-0.935v0z"></path>
<path  d="M38.589 10.001c-0.179-0.559-3.78-8.118-5.128-8.93-1.402-0.845-9.792-1.071-10.872-1.071s-9.472 0.226-10.872 1.071c-1.348 0.81-4.951 8.371-5.129 8.93-0.028 0.084-0.043 0.181-0.043 0.281 0 0.418 0.274 0.772 0.652 0.891l0.007 0.002c0.085 0.028 0.184 0.044 0.286 0.044 0.418 0 0.772-0.271 0.897-0.647l0.002-0.007c0.296-0.929 3.569-7.256 4.288-7.885 0.799-0.378 6.678-0.812 9.912-0.812s9.113 0.434 9.846 0.768c0.783 0.673 4.058 7 4.352 7.93 0.127 0.382 0.481 0.653 0.899 0.653 0.001 0 0.001 0 0.002 0h-0c0.001 0 0.002 0 0.003 0 0.101 0 0.199-0.016 0.291-0.045l-0.007 0.002c0.385-0.121 0.66-0.475 0.66-0.894 0-0.101-0.016-0.198-0.046-0.289l0.002 0.007z"></path>
<path  d="M8.414 26.391c-0.432 0.003-0.793 0.303-0.889 0.706l-0.001 0.006-5.654-1.414v-0.234c0-0.007 0-0.016 0-0.024 0-0.516-0.419-0.935-0.935-0.935s-0.935 0.419-0.935 0.935c0 0.009 0 0.017 0 0.026l-0-0.001v3.738c0.002 1.548 1.256 2.803 2.804 2.804h3.74c1.548-0.002 2.803-1.256 2.804-2.804v-1.87c-0.001-0.515-0.42-0.932-0.935-0.932 0 0 0 0 0 0v0z"></path>
<path  d="M44.242 24.521c-0.516 0-0.935 0.419-0.935 0.935v0 0.234l-5.654 1.414c-0.098-0.409-0.458-0.709-0.89-0.712h-0c-0.516 0-0.935 0.419-0.935 0.935v0 1.867c0.002 1.548 1.256 2.803 2.804 2.804h3.74c1.548-0.002 2.803-1.256 2.804-2.804v-3.74c-0.001-0.515-0.419-0.932-0.934-0.932h-0z"></path>
<path  d="M40.502 7.533h-3.74c-0.516 0-0.935 0.419-0.935 0.935s0.419 0.935 0.935 0.935h3.74c0.516 0 0.935-0.419 0.935-0.935s-0.419-0.935-0.935-0.935v0z"></path>
<path fill="rgba(63, 114, 220, 0.2)" style="fill: var(--color1, rgba(63, 114, 220, 0.2))" d="M45.103 16.424l-2.55 0.512c-0.314 0.049-6.592 0.954-8.184 0.954-0.228 0.181-0.434 1.382-0.41 2.506 5.696-0.269 10.136-0.627 10.207-0.632l1.008-0.136c-0.002-1.242-0.020-2.3-0.071-3.203z"></path>
<path  d="M43.562 12.275c-0.422-0.122-0.64-0.426-1.060-1.047l-0.32-0.467c-0.563-0.78-1.651-0.813-2.703-0.844-0.373-0.001-0.738-0.030-1.095-0.084l0.041 0.005c-0.083-0.12-0.19-0.217-0.315-0.286l-0.005-0.002c-1.756-0.96-8.411-1.984-15.512-1.984s-13.756 1.024-15.512 1.984c-0.131 0.072-0.24 0.169-0.322 0.287l-0.002 0.003c-0.316 0.049-0.681 0.078-1.053 0.079h-0.001c-1.050 0.030-2.138 0.064-2.701 0.842l-0.32 0.469c-0.418 0.621-0.64 0.925-1.060 1.047-0.738 0.215-1.142 0.966-1.366 2.333l1.86 0.462c0.030 0 6.171 0.907 8.243 0.907 0.011-0 0.024-0 0.037-0 0.702 0 1.333 0.299 1.775 0.776l0.001 0.002c0.998 1.071 1.044 2.948 1.020 3.679 3.029 0.128 6.299 0.217 9.403 0.217s6.38-0.092 9.412-0.217c-0.020-0.826 0.026-2.896 0.96-3.874 0.333-0.359 0.807-0.583 1.334-0.583 0.002 0 0.003 0 0.005 0h-0c1.216 0 6.133-0.668 7.923-0.925l2.694-0.537c-0.233-1.311-0.638-2.033-1.361-2.242zM29.178 18.783h-13.178c-0.516 0-0.935-0.419-0.935-0.935s0.419-0.935 0.935-0.935h13.178c0.516 0 0.935 0.419 0.935 0.935s-0.419 0.935-0.935 0.935v0z"></path>
<path  d="M44.36 21.708c-0.164 0.013-11.81 0.942-21.772 0.942s-21.608-0.927-21.722-0.935l-0.817-0.084c0.102 2.029 0.416 5.071 1.391 5.587 1.016 0.536 12.776 1.043 21.149 1.043s20.132-0.507 21.147-1.045c0.979-0.518 1.293-3.581 1.393-5.609z"></path>
<path fill="rgba(63, 114, 220, 0.2)" style="fill: var(--color1, rgba(63, 114, 220, 0.2))" d="M10.71 18.064c-0.096-0.109-0.236-0.177-0.392-0.177-0.012 0-0.024 0-0.036 0.001l0.002-0c-2.206 0-8.294-0.907-8.552-0.944l-1.664-0.415c-0.047 0.886-0.064 1.924-0.064 3.126l1.030 0.107c0.060 0.006 4.495 0.361 10.194 0.632 0.015-0.675-0.075-1.851-0.518-2.33z"></path>
</symbol>
<symbol id="icon-pin" viewBox="0 0 33 32">
<title>pin</title>
<path fill="#3f72dc" style="fill: var(--color2, #3f72dc)" d="M4.503 27.497l2.027-10.147 2.569-2.569h-9.099v17.219h17.219v-9.102l-2.569 2.569z"></path>
<path fill="rgba(63, 114, 220, 0.2)" style="fill: var(--color1, rgba(63, 114, 220, 0.2))" d="M19.269 30.087h8.61v1.913h-8.61z"></path>
<path fill="rgba(63, 114, 220, 0.2)" style="fill: var(--color1, rgba(63, 114, 220, 0.2))" d="M19.269 26.26h13.393v1.913h-13.393z"></path>
<path fill="rgba(63, 114, 220, 0.2)" style="fill: var(--color1, rgba(63, 114, 220, 0.2))" d="M19.269 22.399h13.393v1.913h-13.393z"></path>
<path fill="#3f72dc" style="fill: var(--color2, #3f72dc)" d="M14.639 22.798l9.873-9.873-2.029-2.027-8.35 8.35z"></path>
<path fill="#3f72dc" style="fill: var(--color2, #3f72dc)" d="M21.103 9.517l-2.027-2.029-9.873 9.873 3.551 0.507z"></path>
<path fill="#3f72dc" style="fill: var(--color2, #3f72dc)" d="M32.003 5.412l-5.411-5.412-3.382 3.382 5.411 5.411z"></path>
<path fill="#3f72dc" style="fill: var(--color2, #3f72dc)" d="M8.143 19.197l-1.165 5.825 5.825-1.165-0.582-4.077z"></path>
<path fill="#3f72dc" style="fill: var(--color2, #3f72dc)" d="M20.471 6.090l1.353-1.353 5.411 5.411-1.353 1.353z"></path>
</symbol>
<symbol id="icon-company" viewBox="0 0 32 32">
<title>company</title>
<path  d="M13.187 32h1.875v-3.75h-1.875z"></path>
<path  d="M9.437 32h1.875v-3.75h-1.875z"></path>
<path  d="M3.812 30.127h-3.812v1.875h7.562v-5.625h9.375v5.625h3.75v-20.627h-16.875zM7.562 17.002h9.375v1.875h-9.375zM7.562 20.751h9.375v1.875h-9.375z"></path>
<path fill="rgba(63, 114, 220, 0.2)" style="fill: var(--color1, rgba(63, 114, 220, 0.2))" d="M28.188 30.125v-30.125h-16.875v9.5h11.25v22.5h9.437v-1.875zM26.312 18.875v1.875h-1.875v-1.875zM24.437 17v-1.875h1.875v1.875zM26.312 22.625v1.875h-1.875v-1.875zM26.312 26.374v1.875h-1.875v-1.875zM26.312 13.249h-1.875v-1.875h1.875zM15.062 2h9.375v1.875h-9.375zM15.062 7.625v-1.875h9.375v1.875z"></path>
</symbol>
<symbol id="icon-electronics" viewBox="0 0 32 32">
<title>electronics</title>
<path  d="M15.913 0h-15.913v8.563h15.913zM4.657 5.752h-1.841v-2.918h1.841z"></path>
<path  d="M22.873 28.311h-3.426v1.849h-1.84v-1.849h-8.532v-14.528h6.838v-2.783h-15.913v21.002h26.121v-1.84h-3.248zM4.657 19.69h-1.841v-5.88h1.841z"></path>
<path fill="rgba(63, 114, 220, 0.2)" style="fill: var(--color1, rgba(63, 114, 220, 0.2))" d="M11.51 15.461h20.49v10.849h-20.49z"></path>
</symbol>
<symbol id="icon-facebook" viewBox="0 0 17 32">
<title>facebook</title>
<path fill="#fff" style="fill: var(--color3, #fff)" d="M16.015 17.999l0.889-5.791h-5.558v-3.759c-0.007-0.077-0.012-0.167-0.012-0.258 0-1.599 1.296-2.895 2.895-2.895 0.135 0 0.267 0.009 0.397 0.027l-0.015-0.002h2.527v-4.931c-1.333-0.227-2.884-0.368-4.463-0.39l-0.023-0c-4.576 0-7.567 2.774-7.567 7.795v4.413h-5.087v5.791h5.087v14.001h6.26v-14.001z"></path>
</symbol>
<symbol id="icon-instagram" viewBox="0 0 32 32">
<title>instagram</title>
<path fill="#fff" style="fill: var(--color3, #fff)" d="M16.007 7.795c-4.531 0-8.205 3.673-8.205 8.205s3.673 8.205 8.205 8.205c4.531 0 8.205-3.673 8.205-8.205v0c0-0.004 0-0.009 0-0.014 0-4.524-3.667-8.191-8.191-8.191-0.005 0-0.010 0-0.014 0h0.001zM16.007 21.33c-2.946 0-5.333-2.388-5.333-5.333s2.388-5.333 5.333-5.333c2.946 0 5.333 2.388 5.333 5.333v0c-0.006 2.943-2.39 5.328-5.333 5.333h-0.001zM26.458 7.453c0 1.057-0.857 1.914-1.914 1.914s-1.914-0.857-1.914-1.914c0-1.057 0.857-1.914 1.914-1.914v0c0.003 0 0.006-0 0.009-0 1.054 0 1.909 0.854 1.909 1.909 0 0.004 0 0.008-0 0.013v-0.001zM31.892 9.395c0.001-0.058 0.002-0.127 0.002-0.196 0-2.519-0.984-4.809-2.588-6.506l0.004 0.004c-1.701-1.602-4-2.587-6.529-2.587-0.062 0-0.124 0.001-0.186 0.002l0.009-0c-2.642-0.151-10.56-0.151-13.202 0-0.054-0.001-0.117-0.002-0.18-0.002-2.527 0-4.824 0.985-6.528 2.591l0.005-0.004c-1.602 1.697-2.587 3.992-2.587 6.517 0 0.063 0.001 0.127 0.002 0.19l-0-0.009c-0.151 2.642-0.151 10.56 0 13.202-0.001 0.060-0.002 0.13-0.002 0.201 0 2.521 0.985 4.812 2.591 6.509l-0.004-0.004c1.703 1.602 4.003 2.587 6.534 2.587 0.060 0 0.121-0.001 0.181-0.002l-0.009 0c2.642 0.151 10.56 0.151 13.202 0 0.060 0.001 0.13 0.002 0.201 0.002 2.521 0 4.812-0.985 6.509-2.591l-0.004 0.004c1.602-1.701 2.587-4 2.587-6.529 0-0.062-0.001-0.124-0.002-0.186l0 0.009c0.151-2.642 0.151-10.554 0-13.192zM28.481 25.433c-0.561 1.395-1.646 2.48-3.005 3.028l-0.036 0.013c-2.106 0.836-7.105 0.642-9.433 0.642s-7.333 0.185-9.433-0.642c-1.395-0.561-2.48-1.646-3.028-3.005l-0.013-0.036c-0.836-2.106-0.642-7.105-0.642-9.433s-0.185-7.333 0.642-9.433c0.561-1.395 1.646-2.48 3.005-3.028l0.036-0.013c2.106-0.836 7.105-0.642 9.433-0.642s7.333-0.185 9.433 0.642c1.395 0.561 2.48 1.646 3.028 3.005l0.013 0.036c0.836 2.106 0.642 7.105 0.642 9.433s0.194 7.333-0.642 9.433z"></path>
</symbol>
<symbol id="icon-twitter" viewBox="0 0 41 32">
<title>twitter</title>
<path fill="#fff" style="fill: var(--color3, #fff)" d="M36.783 7.976c0.025 0.35 0.025 0.701 0.025 1.049-0.157 12.727-10.511 22.984-23.26 22.984-0.227 0-0.454-0.003-0.679-0.010l0.033 0.001c-0.025 0-0.054 0-0.083 0-4.745 0-9.174-1.352-12.923-3.691l0.103 0.060c0.57 0.064 1.232 0.1 1.902 0.1 0.045 0 0.090-0 0.135-0l-0.007 0c0.023 0 0.050 0 0.078 0 3.904 0 7.505-1.296 10.398-3.481l-0.044 0.032c-3.612-0.023-6.68-2.326-7.838-5.541l-0.018-0.058c0.474 0.076 1.024 0.121 1.583 0.125l0.004 0c0.786-0.001 1.547-0.1 2.275-0.286l-0.064 0.014c-3.815-0.697-6.679-3.967-6.738-7.917l-0-0.006v-0.1c1.099 0.6 2.399 0.973 3.781 1.025l0.016 0c-2.251-1.426-3.728-3.897-3.747-6.713v-0.003c0-0.004 0-0.008 0-0.012 0-1.503 0.426-2.906 1.165-4.096l-0.019 0.033c4.239 4.934 10.379 8.131 17.271 8.448l0.053 0.002c-0.129-0.554-0.205-1.192-0.209-1.847v-0.003c0.091-4.48 3.744-8.077 8.238-8.077 0.058 0 0.116 0.001 0.174 0.002l-0.009-0c0.017-0 0.038-0 0.059-0 2.379 0 4.53 0.972 6.079 2.541l0.001 0.001c2.007-0.377 3.795-1.055 5.414-1.993l-0.081 0.044c-0.666 1.915-1.971 3.465-3.654 4.43l-0.040 0.021c1.791-0.2 3.428-0.641 4.953-1.294l-0.113 0.043c-1.176 1.629-2.57 3.011-4.158 4.138l-0.055 0.037z"></path>
</symbol>
<symbol id="icon-youtube" viewBox="0 0 46 32">
<title>youtube</title>
<path fill="#fff" style="fill: var(--color3, #fff)" d="M44.559 5.006c-0.537-1.974-2.054-3.501-3.983-4.040l-0.040-0.010c-3.548-0.956-17.784-0.956-17.784-0.956s-14.231 0-17.781 0.958c-1.969 0.549-3.487 2.076-4.014 4.010l-0.009 0.040c-0.605 3.315-0.951 7.13-0.951 11.026s0.346 7.711 1.009 11.416l-0.058-0.39c0.541 1.957 2.062 3.464 3.988 3.975l0.039 0.009c3.548 0.958 17.781 0.958 17.781 0.958s14.231 0 17.781-0.958c1.964-0.522 3.483-2.028 4.014-3.945l0.009-0.040c0.605-3.315 0.951-7.13 0.951-11.026s-0.346-7.711-1.009-11.416l0.058 0.39zM18.1 22.8v-13.534l11.895 6.77z"></path>
</symbol>
<symbol id="icon-user" viewBox="0 0 32 32">
<title>user</title>
<path fill="#acacac" style="fill: var(--color4, #acacac)" d="M14.666 18.749v7.917h2.667v-7.917c5.289 0.687 9.332 5.163 9.333 10.584v0h-21.333c0-0 0-0 0-0.001 0-5.421 4.044-9.897 9.279-10.578l0.054-0.006zM16 17.333c-4.418 0-8-3.582-8-8s3.582-8 8-8c4.418 0 8 3.582 8 8v0c0 4.418-3.582 8-8 8v0z"></path>
</symbol>
<symbol id="icon-ibtdi" viewBox="0 0 104 32">
<title>ibtdi</title>
<path fill="#fff" style="fill: var(--color3, #fff)" d="M79.272 23.194q-0.68 3.573-1.362 7.149c-0.053 0.277-0.098 0.555-0.16 0.829-0.046 0.203-0.16 0.48 0 0.675 0.093 0.089 0.22 0.144 0.36 0.144 0.021 0 0.042-0.001 0.063-0.004l-0.002 0c0.272 0 0.542 0 0.813 0h7.294c0.205 0 0.48 0.053 0.651-0.101s0.176-0.443 0.216-0.656l0.341-1.789q0.342-1.8 0.685-3.6l0.339-1.782c0.054-0.29 0.32-1.008-0.109-1.147-0.096-0.019-0.206-0.030-0.318-0.030-0.063 0-0.125 0.003-0.187 0.010l0.008-0.001h-6.965c-0.366 0-0.736 0-1.102 0-0.238-0.005-0.512 0.024-0.565 0.302z"></path>
<path fill="#fff" style="fill: var(--color3, #fff)" d="M104.48 11.219q-0.083-3.653-0.16-7.302-0.022-0.918-0.043-1.835c-0.013-0.542 0.024-1.12-0.042-1.653-0.007-0.182-0.143-0.33-0.318-0.357l-0.002-0c-0.125-0.011-0.271-0.016-0.418-0.016s-0.293 0.006-0.437 0.018l0.019-0.001h-7.261c-0.098-0.013-0.211-0.021-0.326-0.021-0.168 0-0.332 0.016-0.49 0.048l0.016-0.003c-0.197 0.074-0.24 0.299-0.275 0.48q-0.677 3.565-1.355 7.128-1.363 7.173-2.72 14.346l-1.371 7.216c-0.112 0.592-0.226 1.184-0.338 1.776-0.038 0.208-0.16 0.506-0.074 0.712 0.084 0.145 0.239 0.241 0.416 0.241 0.026 0 0.051-0.002 0.076-0.006l-0.003 0h8.128c0.186 0 0.426 0 0.539-0.171 0.094-0.219 0.156-0.474 0.172-0.741l0-0.007c0.059-0.302 0.12-0.603 0.178-0.906l1.41-7.16q0.691-3.52 1.384-7.027c0.112-0.571 0.226-1.142 0.339-1.712 0.056-0.285 0.112-0.571 0.17-0.858 0.014-0.286 0.088-0.553 0.21-0.79l-0.005 0.011c0.171-0.154 0.381-0.268 0.612-0.327l0.010-0.002 0.848-0.354 0.757-0.32c0.17-0.074 0.357-0.179 0.352-0.406z"></path>
<path fill="#fff" style="fill: var(--color3, #fff)" d="M65.704 20.586c0.258 0 0.358-0.24 0.403-0.454 0.066-0.304 0.112-0.618 0.173-0.923q0.251-1.272 0.502-2.544 0.512-2.589 1.022-5.178h-9.058c-0.006-0-0.013-0.001-0.020-0.001-0.19 0-0.348 0.137-0.38 0.318l-0 0.002c-0.070 0.266-0.106 0.546-0.16 0.816q-0.341 1.784-0.68 3.57l-0.661 3.466c-0.046 0.237-0.198 0.662 0.022 0.853 0.16 0.133 0.43 0.077 0.613 0.077h0.947q3.638-0.003 7.275-0.002z"></path>
<path fill="#fff" style="fill: var(--color3, #fff)" d="M69.523 0.077h-8.096c-0.213 0-0.557-0.070-0.741 0.056-0.112 0.101-0.185 0.244-0.195 0.403l-0 0.002-0.16 0.87q-0.344 1.8-0.686 3.602l-0.677 3.554c-0.037 0.19-0.074 0.394 0.107 0.523 0.144 0.068 0.313 0.108 0.491 0.108 0.067 0 0.133-0.006 0.197-0.017l-0.007 0.001h7.242c0.266 0 0.533 0 0.8 0 0.022 0.004 0.048 0.006 0.075 0.006 0.157 0 0.296-0.072 0.389-0.184l0.001-0.001c0.060-0.141 0.101-0.304 0.115-0.475l0-0.005c0.040-0.211 0.082-0.422 0.122-0.64l0.242-1.28 0.979-5.142c0.070-0.268 0.13-0.594 0.167-0.928l0.003-0.032c0-0.238-0.104-0.421-0.366-0.421z"></path>
<path fill="#fff" style="fill: var(--color3, #fff)" d="M79.565 20.59c0.106 0.003 0.231 0.005 0.356 0.005 2.199 0 4.267-0.558 6.072-1.539l-0.067 0.033c1.79-1.055 3.187-2.612 4.017-4.477l0.025-0.062c0.393-0.897 0.694-1.939 0.854-3.027l0.008-0.067c0.19-1.202 0.45-2.39 0.68-3.584q0.694-3.558 1.386-7.115c0.022-0.074 0.035-0.158 0.035-0.246s-0.013-0.172-0.037-0.252l0.002 0.006c-0.090-0.224-0.339-0.192-0.538-0.192h-8.123c-0.218 0-0.57-0.072-0.749 0.085-0.121 0.151-0.196 0.344-0.202 0.554l-0 0.001-0.176 0.939q-0.171 0.906-0.339 1.808-0.677 3.608-1.352 7.216c-0.038 0.206-0.037 0.509-0.195 0.667-0.109 0.085-0.249 0.136-0.4 0.136-0.028 0-0.056-0.002-0.083-0.005l0.003 0c-0.278 0-0.562 0.034-0.84 0.011-0.25-0.019-0.557-0.109-0.517-0.419 0.070-0.578 0.218-1.157 0.32-1.73q0.68-3.584 1.362-7.166l0.16-0.845c0.053-0.211 0.103-0.478 0.137-0.748l0.004-0.036c0.005-0.025 0.008-0.055 0.008-0.085 0-0.122-0.047-0.233-0.125-0.315l0 0c-0.176-0.144-0.528-0.070-0.736-0.070h-8.128c-0.184 0.003-0.336 0.14-0.361 0.318l-0 0.002c-0.15 0.53-0.216 1.096-0.32 1.634q-0.683 3.597-1.368 7.2t-1.366 7.189q-0.341 1.798-0.685 3.597l-0.341 1.798c-0.046 0.246-0.082 0.499-0.146 0.741-0.024 0.186-0.18 0.328-0.369 0.331h-11.644c-0.095 0.009-0.206 0.015-0.317 0.015-0.166 0-0.329-0.012-0.488-0.034l0.018 0.002c-0.168-0.020-0.3-0.152-0.32-0.318l-0-0.002c0.025-0.32 0.082-0.616 0.168-0.9l-0.008 0.030 1.416-7.189c0.235-1.194 0.48-2.386 0.702-3.579 0.138-0.508 0.239-1.104 0.283-1.716l0.002-0.031c-0.006-0.623-0.054-1.228-0.142-1.821l0.009 0.072c-0.223-2.19-1.248-4.106-2.773-5.478l-0.008-0.007c-0.785-0.649-1.719-1.151-2.739-1.449l-0.055-0.014c-0.472-0.142-1.032-0.255-1.606-0.316l-0.042-0.004c-0.345-0.028-0.747-0.044-1.152-0.044-0.161 0-0.321 0.003-0.48 0.007l0.023-0.001h-9.056c-0.048-0.008-0.103-0.013-0.159-0.013-0.142 0-0.277 0.031-0.398 0.086l0.006-0.002c-0.189 0.126-0.184 0.413-0.222 0.613l-0.683 3.59q-1.363 7.162-2.72 14.32c-0.053 0.282-0.107 0.565-0.16 0.846-0.068 0.221-0.107 0.475-0.107 0.738v0c0.009 0.157 0.121 0.285 0.268 0.32l0.002 0c0.146 0.016 0.315 0.026 0.487 0.026 0.136 0 0.27-0.006 0.403-0.017l-0.017 0.001h7.24c0.076 0.008 0.164 0.012 0.253 0.012 0.137 0 0.271-0.010 0.402-0.030l-0.015 0.002c0.235-0.058 0.294-0.274 0.32-0.48 0.086-0.563 0.213-1.12 0.32-1.677 0.47-2.382 0.947-4.76 1.403-7.142q0.16-0.877 0.334-1.76c0.038-0.178 0.193-0.309 0.379-0.309 0.002 0 0.003 0 0.005 0h-0c0.283-0.027 0.576 0 0.859 0 0.338 0 0.384 0.32 0.354 0.587-0.040 0.342-0.141 0.682-0.203 1.021q-0.674 3.562-1.354 7.123-0.339 1.786-0.678 3.57c-0.054 0.285-0.107 0.571-0.16 0.856-0.042 0.219-0.062 0.435-0.31 0.499-0.133 0.022-0.287 0.034-0.444 0.034-0.086 0-0.171-0.004-0.255-0.011l0.011 0.001h-21.12c-0.114 0-0.467-0.077-0.501 0.075-0.061 0.293-0.112 0.589-0.17 0.883q-0.683 3.584-1.363 7.166c-0.062 0.331-0.133 0.662-0.189 0.995h53.666c0.219 0 0.515 0.059 0.667-0.141 0.101-0.185 0.164-0.404 0.173-0.637l0-0.003 0.16-0.922c0.107-0.598 0.216-1.197 0.32-1.795 0.307-1.709 0.589-3.421 0.912-5.12 0.16-0.816 0.296-1.64 0.48-2.451 0.093-0.406 0.512-0.331 0.835-0.331 0.453-0.038 0.883-0.038 1.312-0.038z"></path>
<path fill="#fff" style="fill: var(--color3, #fff)" d="M23.136 11.478c0.098-0.514 0.211-1.029 0.283-1.547 0.040-0.286 0.107-0.702 0.466-0.733 0.275-0.022 0.56 0 0.835 0 0.034-0.006 0.074-0.009 0.114-0.009 0.148 0 0.286 0.043 0.402 0.116l-0.003-0.002c0.17 0.16 0.102 0.403 0.058 0.594-0.070 0.293-0.115 0.594-0.173 0.891q-0.683 3.589-1.363 7.178-0.171 0.894-0.339 1.789c-0.044 0.118-0.070 0.254-0.070 0.396 0 0.076 0.007 0.15 0.021 0.222l-0.001-0.007c0.088 0.23 0.354 0.237 0.563 0.23 1.184-0.042 2.379 0 3.568 0h4.514c0.211 0 0.454 0.040 0.578-0.173 0.080-0.176 0.137-0.379 0.159-0.593l0.001-0.009q0.091-0.462 0.184-0.93 1.41-7.158 2.771-14.325 0.341-1.79 0.68-3.581c0.052-0.141 0.083-0.305 0.083-0.475 0-0.070-0.005-0.138-0.015-0.205l0.001 0.008c-0.083-0.237-0.347-0.248-0.558-0.24-0.562 0.018-1.12 0-1.688 0q-3.611 0-7.221 0c-2.416 0-4.83 0-7.246 0h-2.694c-0.107-0.009-0.231-0.015-0.357-0.015-0.181 0-0.359 0.011-0.534 0.033l0.021-0.002c-0.186 0.044-0.323 0.203-0.336 0.396l-0 0.001c-0.054 0.293-0.112 0.586-0.16 0.877l-0.336 1.76-2.72 14.338q-0.341 1.79-0.68 3.582c-0.054 0.285-0.107 0.571-0.16 0.856l-0.077 0.405c-0.010 0.144-0.046 0.277-0.104 0.399l0.003-0.007c-0.117 0.178-0.344 0.171-0.533 0.171-0.27 0-0.538 0-0.8 0-0.027 0.005-0.058 0.008-0.090 0.008-0.156 0-0.295-0.069-0.389-0.178l-0.001-0.001c-0.142-0.222 0.010-0.592 0.058-0.829 0.117-0.6 0.237-1.197 0.354-1.797l0.704-3.579c0.944-4.787 1.853-9.581 2.765-14.376 0.074-0.382 0.146-0.766 0.218-1.149 0.035-0.186 0.072-0.374 0.107-0.56 0.006-0.149 0.029-0.289 0.067-0.424l-0.003 0.013-9 0.069c-0.070-0.005-0.152-0.008-0.234-0.008-0.143 0-0.284 0.009-0.422 0.026l0.017-0.002c-0.258 0.054-0.32 0.32-0.397 0.533-0.373 1.12-0.822 2.214-1.235 3.315s-0.837 2.24-1.253 3.36c-0.086 0.227 0.074 0.394 0.234 0.531l0.693 0.592c0.16 0.139 0.442 0.296 0.488 0.52 0.001 0.029 0.002 0.063 0.002 0.098 0 0.244-0.040 0.478-0.114 0.697l0.005-0.015q-0.683 3.589-1.363 7.178-0.341 1.79-0.68 3.579-0.16 0.891-0.339 1.781c-0.107 0.574-0.25 1.144-0.339 1.722-0.067 0.347-0.105 0.745-0.105 1.153 0 1.801 0.744 3.428 1.942 4.591l0.002 0.002c1.557 1.265 3.54 2.063 5.705 2.155l0.020 0.001c1.070 0.101 2.147 0.112 3.222 0.114q1.822 0 3.643 0h3.662c0.074 0.006 0.16 0.009 0.247 0.009 0.158 0 0.313-0.011 0.465-0.032l-0.018 0.002c0.258-0.056 0.285-0.27 0.328-0.494 0.115-0.592 0.234-1.182 0.349-1.774l1.416-7.187 1.090-5.539q0.275-1.394 0.549-2.784c0.174-0.899 0.384-1.8 0.53-2.709 0.048-0.429-0.107 0.451-0.032 0.002z"></path>
</symbol>
<symbol id="icon-trans" viewBox="0 0 36 32">
<title>trans</title>
<path fill="#1eaf62" style="fill: var(--color5, #1eaf62)" d="M6.914 9.755c3.023-0.625 5.895-0.743 8.705-0.428l-0.092-0.008c2.857 0.314 5.56 1.006 8.124 2.064l0.079 0.034c4.963 1.995 9.436 5.508 12.623 10.313l0.043 0.066c-3.591-4.353-8.213-7.295-13.257-8.76l0.013 0.004c-4.877-1.492-10.16-1.555-15.185-0.014l-0.168 0.058z"></path>
<path fill="#1eaf62" style="fill: var(--color5, #1eaf62)" d="M9.766 15.397l-8.618-2.326 6.322-6.302z"></path>
<path fill="#1eaf62" style="fill: var(--color5, #1eaf62)" d="M8.563 8.184c1.673-0.467 3.245-0.692 4.809-0.726l-0.111 0.006c1.712-0.055 3.279 0.056 4.817 0.317l-0.050-0.008c0.79 0.124 1.566 0.322 2.34 0.518 0.385 0.109 0.761 0.249 1.141 0.371l0.567 0.191 0.551 0.238c0.365 0.162 0.734 0.313 1.094 0.485l1.046 0.58c0.171 0.1 0.346 0.195 0.514 0.3l0.489 0.343q0.486 0.345 0.957 0.702-0.545-0.242-1.076-0.495l-0.528-0.256c-0.179-0.079-0.365-0.144-0.546-0.217l-1.082-0.441-1.104-0.373c-1.473-0.485-2.947-0.845-4.442-1.089l-0.065-0.010c-1.419-0.245-2.932-0.412-4.454-0.485l-0.172-0.003c-1.324-0.068-2.867-0.061-4.411 0.024l-0.285 0.027z"></path>
<path fill="#1eaf62" style="fill: var(--color5, #1eaf62)" d="M35.401 22.46c-2.14-1.726-4.271-3.391-6.519-4.888-1.121-0.751-2.283-1.43-3.467-2.076-1.328-0.68-2.548-1.214-3.792-1.678l0.071 0.028c1.395 0.162 2.715 0.506 3.967 1.025l0.040 0.017c1.185 0.499 2.392 1.139 3.539 1.885l0.118 0.083c0.993 0.65 2.081 1.491 3.108 2.416l0.147 0.144c0.919 0.805 1.872 1.83 2.727 2.959l0.061 0.085z"></path>
</symbol>
<symbol id="icon-snapshat" viewBox="0 0 32 32">
<title>snapshat</title>
<path fill="#fff" style="fill: var(--color3, #fff)" d="M15.828 29.019c-1.378-0.064-2.624-0.586-3.599-1.415l0.008 0.007c-0.57-0.482-1.255-0.846-2.008-1.045l-0.036-0.008c-0.31-0.056-0.668-0.088-1.032-0.088-0.012 0-0.024 0-0.036 0h0.002c-0.528 0.004-1.040 0.065-1.533 0.176l0.048-0.009c-0.164 0.037-0.357 0.065-0.555 0.077l-0.010 0c-0.011 0.001-0.025 0.002-0.038 0.002-0.187 0-0.345-0.129-0.388-0.303l-0.001-0.003c-0.067-0.213-0.108-0.416-0.149-0.612-0.107-0.493-0.196-0.8-0.381-0.827-1.985-0.303-3.173-0.76-3.405-1.301-0.022-0.048-0.038-0.105-0.046-0.163l-0-0.003c-0-0.006-0.001-0.013-0.001-0.020 0-0.158 0.115-0.288 0.265-0.313l0.002-0c1.699-0.319 3.148-1.212 4.174-2.465l0.010-0.012c0.564-0.637 1.043-1.368 1.407-2.162l0.023-0.055c-0-0-0-0.001-0-0.001 0-0.007 0.005-0.012 0.012-0.012 0 0 0 0 0 0v0c0.13-0.212 0.207-0.469 0.207-0.744 0-0.163-0.027-0.32-0.077-0.466l0.003 0.010c-0.255-0.613-1.1-0.875-1.676-1.053-0.148-0.040-0.267-0.088-0.38-0.124-0.493-0.196-1.315-0.613-1.2-1.189 0.165-0.421 0.567-0.714 1.038-0.714 0.015 0 0.030 0 0.045 0.001l-0.002-0c0.008-0 0.018-0.001 0.028-0.001 0.106 0 0.207 0.025 0.296 0.069l-0.004-0.002c0.395 0.201 0.858 0.328 1.349 0.349l0.007 0c0.026 0.002 0.057 0.004 0.088 0.004 0.263 0 0.504-0.093 0.693-0.248l-0.002 0.002q-0.019-0.4-0.047-0.791c-0.087-0.573-0.137-1.235-0.137-1.908 0-1.233 0.167-2.426 0.479-3.56l-0.022 0.094c1.113-2.483 3.563-4.18 6.41-4.18 0.028 0 0.055 0 0.083 0l-0.004-0 0.475-0.011h0.067c0.026-0 0.057-0.001 0.088-0.001 2.846 0 5.294 1.701 6.385 4.142l0.018 0.044c0.291 1.037 0.459 2.229 0.459 3.459 0 0.675-0.050 1.339-0.148 1.987l0.009-0.073-0.011 0.089c-0.013 0.243-0.031 0.475-0.043 0.713 0.183 0.144 0.417 0.231 0.672 0.231 0.015 0 0.029-0 0.044-0.001l-0.002 0c0.469-0.035 0.902-0.161 1.291-0.36l-0.019 0.009c0.122-0.055 0.265-0.087 0.416-0.088h0c0.172 0.004 0.335 0.036 0.487 0.091l-0.011-0.003h0.012c0.4 0.149 0.667 0.428 0.667 0.72s-0.203 0.689-1.219 1.1c-0.103 0.043-0.229 0.086-0.359 0.119l-0.021 0.005c-0.565 0.173-1.409 0.447-1.677 1.053-0.048 0.136-0.076 0.292-0.076 0.455 0 0.273 0.078 0.528 0.213 0.744l-0.003-0.006c-0 0-0 0.001-0 0.001 0 0.007 0.005 0.012 0.012 0.012 0 0 0 0 0 0v0c0.065 0.165 1.783 4.065 5.6 4.701 0.153 0.030 0.267 0.163 0.267 0.322 0 0.004-0 0.008-0 0.012v-0.001c0 0.002 0 0.004 0 0.005 0 0.061-0.015 0.118-0.042 0.168l0.001-0.002c-0.232 0.547-1.409 0.992-3.407 1.301-0.184 0.029-0.267 0.333-0.38 0.827q-0.064 0.308-0.149 0.612c-0.037 0.175-0.189 0.304-0.372 0.304-0.010 0-0.019-0-0.029-0.001l0.001 0h-0.013c-0.202-0.004-0.396-0.028-0.584-0.069l0.020 0.004c-0.441-0.098-0.948-0.155-1.468-0.155-0.006 0-0.013 0-0.019 0h0.001c-0.377 0.001-0.747 0.034-1.106 0.095l0.039-0.006c-0.79 0.206-1.476 0.57-2.053 1.060l0.007-0.006c-0.974 0.815-2.22 1.333-3.586 1.401l-0.014 0.001h-0.339z"></path>
</symbol>
<symbol id="icon-job" viewBox="0 0 28 32">
<title>job</title>
<path fill="rgba(63, 114, 220, 0.2)" style="fill: var(--color1, rgba(63, 114, 220, 0.2))" d="M23.437 18.875c0-2.071-1.679-3.75-3.75-3.75s-3.75 1.679-3.75 3.75v0h-4.687v1.875c0 2.917 5.458 3.75 8.438 3.75 2.966 0 8.438-0.829 8.438-3.75v-1.875zM17.812 18.875c0.019-1.021 0.851-1.841 1.875-1.841s1.855 0.82 1.875 1.839l0 0.002z"></path>
<path fill="rgba(63, 114, 220, 0.2)" style="fill: var(--color1, rgba(63, 114, 220, 0.2))" d="M20.625 28.25h-1.875v-1.894c-2.452-0.101-5.545-0.643-7.5-2.127v7.772h16.875v-7.773c-1.946 1.48-5.036 2.027-7.5 2.128z"></path>
<path  d="M15.499 15.125h-8v-1.877h9.376v0.755c0.807-0.474 1.777-0.755 2.813-0.755 0.331 0 0.655 0.029 0.971 0.084l-0.034-0.005v-13.327h-20.625v30.125h9.375v-13.124h5.009c0.262-0.725 0.641-1.348 1.119-1.88l-0.005 0.005zM7.5 5.75h9.375v1.875h-9.375zM7.5 9.5h9.375v1.875h-9.375zM5.625 15.124h-1.875v-1.876h1.875zM5.625 11.375h-1.875v-1.875h1.875zM5.625 7.625h-1.875v-1.875h1.875z"></path>
</symbol>
<symbol id="icon-notification" viewBox="0 0 32 32">
<title>notification</title>
<path fill="#1eaf62" style="fill: var(--color5, #1eaf62)" d="M29.333 26.667h-26.667v-2.667h1.333v-9.292c0-6.627 5.373-12 12-12s12 5.373 12 12v0 9.292h1.333zM12.667 28h6.667c0 1.841-1.492 3.333-3.333 3.333s-3.333-1.492-3.333-3.333v0z"></path>
</symbol>
<symbol id="icon-arrow-up" viewBox="0 0 52 32">
<title>arrow-up</title>
<path fill="#fff" style="fill: var(--color3, #fff)" d="M26.183 11.635l20.365 20.365 5.817-5.817-26.183-26.183-26.183 26.183 5.817 5.817z"></path>
</symbol>
<symbol id="icon-categories" viewBox="0 0 32 32">
<title>categories</title>
<path fill="#fff" style="fill: var(--color3, #fff)" d="M1.778 0h28.444c0.982 0 1.778 0.796 1.778 1.778v0 28.444c0 0.982-0.796 1.778-1.778 1.778v0h-28.444c-0.982 0-1.777-0.795-1.778-1.777v-28.444c0-0 0-0.001 0-0.001 0-0.982 0.796-1.778 1.778-1.778v0zM14.222 14.222h-7.111v3.555h7.111v7.111h3.555v-7.111h7.111v-3.555h-7.111v-7.111h-3.555z"></path>
</symbol>
<symbol id="icon-path_386" viewBox="0 0 32 32">
<title>path_386</title>
<path fill="#acacac" style="fill: var(--color4, #acacac)" d="M16 32c-8.837 0-16-7.163-16-16s7.163-16 16-16c8.837 0 16 7.163 16 16v0c0 8.837-7.163 16-16 16v0zM17.6 16v-8h-3.2v11.2h9.6v-3.2z"></path>
</symbol>
<symbol id="icon-heart" viewBox="0 0 35 32">
<title>heart</title>
<path fill="#3f72dc" style="fill: var(--color2, #3f72dc)" d="M25.081 0c5.255 0 9.514 4.324 9.514 10.378 0 12.108-12.973 19.027-17.297 21.622-4.324-2.595-17.297-9.514-17.297-21.622-0.010-0.169-0.016-0.367-0.016-0.566 0-5.321 4.233-9.653 9.515-9.812l0.015-0c3.062 0.117 5.798 1.418 7.781 3.457l0.003 0.003c1.986-2.041 4.722-3.343 7.763-3.459l0.021-0.001zM18.913 26.984c1.609-1.008 2.974-1.977 4.282-3.014l-0.097 0.074c5.156-4.094 8.036-8.574 8.036-13.665 0-4.082-2.659-6.919-6.054-6.919-2.106 0.114-3.979 1.029-5.335 2.443l-0.003 0.003-2.446 2.446-2.446-2.446c-1.359-1.417-3.232-2.332-5.318-2.445l-0.020-0.001c-3.356 0-6.054 2.864-6.054 6.919 0 5.092 2.882 9.571 8.035 13.665 1.212 0.964 2.578 1.933 3.996 2.827l0.192 0.113c0.519 0.327 1.038 0.64 1.616 0.989 0.586-0.346 1.098-0.663 1.616-0.988z"></path>
</symbol>
<symbol id="icon-grid" viewBox="0 0 32 32">
<title>grid</title>
<path fill="#fff" style="fill: var(--color3, #fff)" d="M0 0h14.222v14.222h-14.222zM0 17.778h14.222v14.222h-14.222zM17.778 0h14.222v14.222h-14.222zM17.778 17.778h14.222v14.222h-14.222z"></path>
</symbol>
<symbol id="icon-arrow-logo" viewBox="0 0 16 32">
<title>arrow-logo</title>
<path fill="#1eaf62" style="fill: var(--color5, #1eaf62)" d="M0 16l16-16v32z"></path>
</symbol>
<symbol id="icon-send" viewBox="0 0 32 32">
<title>send</title>
<path fill="#fff" style="fill: var(--color1, #fff)" d="M28.133 3.067l-25.073 8.357c-0.268 0.091-0.457 0.34-0.457 0.633 0 0.279 0.172 0.518 0.415 0.618l0.004 0.002 11.644 4.657 5.9 11.8c0.112 0.22 0.337 0.369 0.596 0.369 0.303 0 0.559-0.202 0.64-0.479l0.001-0.005 7.183-25.137c0.016-0.055 0.026-0.118 0.026-0.183 0-0.368-0.298-0.667-0.667-0.667-0.076 0-0.149 0.013-0.217 0.036l0.005-0.001z"></path>
</symbol>
<symbol id="icon-smartphone" viewBox="0 0 18 32">
<title>smartphone</title>
<path  d="M9.806 29.465c0 0.466-0.378 0.844-0.844 0.844s-0.844-0.378-0.844-0.844c0-0.466 0.378-0.844 0.844-0.844v0c0.466 0 0.844 0.378 0.844 0.844v0z"></path>
<path fill="rgba(63, 114, 220, 0.2)" style="fill: var(--color1, rgba(63, 114, 220, 0.2))" d="M2.069 5.655h13.793v20.069h-13.793z"></path>
<path  d="M15.724 0h-13.517c-1.218 0.001-2.205 0.989-2.207 2.207v27.584c0 1.219 0.988 2.208 2.207 2.209h13.518c1.218-0.001 2.205-0.989 2.207-2.207v-27.587c-0.001-1.218-0.989-2.205-2.207-2.207h-0zM5.862 1.792h6.208c0.305 0 0.552 0.247 0.552 0.552s-0.247 0.552-0.552 0.552h-6.208c-0.305 0-0.552-0.247-0.552-0.552s0.247-0.552 0.552-0.552v0zM8.965 31.411c-1.075 0-1.947-0.872-1.947-1.947s0.872-1.947 1.947-1.947c1.075 0 1.947 0.872 1.947 1.947v0c0 0 0 0.001 0 0.001 0 1.075-0.871 1.947-1.946 1.947h-0zM16.965 26.275c0 0.305-0.247 0.552-0.552 0.552v0h-14.896c-0.305 0-0.552-0.247-0.552-0.552v0-21.171c0-0.305 0.247-0.552 0.552-0.552v0h14.897c0.305 0 0.552 0.247 0.552 0.552v0z"></path>
</symbol>
<symbol id="icon-sofa" viewBox="0 0 43 32">
<title>sofa</title>
<path fill="rgba(63, 114, 220, 0.2)" style="fill: var(--color1, rgba(63, 114, 220, 0.2))" d="M9.13 11.799c0.453 0.663 0.842 1.425 1.13 2.234l0.022 0.070c0.646 1.949 1.036 4.194 1.072 6.525l0 0.018h20.645c0.038-2.349 0.427-4.595 1.119-6.703l-0.045 0.16c0.309-0.879 0.699-1.641 1.174-2.338l-0.022 0.034c0.64-0.91 1.408-1.68 2.287-2.303l0.029-0.020c0.288-0.213 0.619-0.429 0.963-0.627l0.052-0.027c-2.368-5.274-8.6-8.824-15.879-8.824-6.895 0.003-12.979 3.664-15.445 9.087 0.2 0.128 0.394 0.261 0.581 0.394 0.907 0.643 1.675 1.412 2.297 2.291l0.020 0.030z"></path>
<path  d="M42.589 11.051c-0.417-0.386-0.948-0.654-1.536-0.75l-0.017-0.002c-0.242-0.056-0.521-0.089-0.807-0.089s-0.564 0.032-0.832 0.093l0.025-0.005c-0.652 0.176-1.219 0.476-1.7 0.875l0.007-0.006c-0.707 0.5-1.305 1.099-1.789 1.784l-0.015 0.023c-0.354 0.526-0.661 1.129-0.89 1.769l-0.018 0.057c-0.619 1.936-0.976 4.163-0.976 6.473 0 0.142 0.001 0.283 0.004 0.424l-0-0.021c0 0.57-0.462 1.032-1.032 1.032v0h-22.669c-0.57 0-1.032-0.462-1.032-1.032v0c0.002-0.114 0.003-0.249 0.003-0.384 0-2.317-0.356-4.551-1.015-6.65l0.043 0.157c-0.248-0.698-0.554-1.302-0.927-1.858l0.019 0.030c-0.5-0.708-1.099-1.306-1.784-1.791l-0.023-0.015c-0.474-0.394-1.042-0.694-1.663-0.863l-0.031-0.007c-0.242-0.057-0.52-0.089-0.806-0.089s-0.564 0.033-0.83 0.094l0.025-0.005c-0.606 0.1-1.136 0.369-1.555 0.756l0.002-0.002c-0.467 0.508-0.753 1.188-0.753 1.936 0 0.097 0.005 0.192 0.014 0.286l-0.001-0.012c0.261 1.132 1.148 2.004 2.268 2.24l0.019 0.003c0.121 0.026 0.259 0.042 0.401 0.042 0.172 0 0.338-0.022 0.497-0.064l-0.014 0.003c0.168-0.048 0.362-0.075 0.561-0.075 0.295 0 0.577 0.060 0.833 0.168l-0.014-0.005c1.723 0.778 1.91 3.731 0.64 10.169 0.649 1.908 1.467 2.055 2.086 2.127h2.003v3.097c0 0.57 0.462 1.032 1.032 1.032v0h1.032c0.57 0 1.032-0.462 1.032-1.032v0-3.094h18.547v3.094c0 0.57 0.462 1.032 1.032 1.032v0h1.032c0.57-0.001 1.031-0.463 1.031-1.032v0-3.097h2.003c0.62-0.071 1.437-0.22 2.086-2.127-1.271-6.437-1.083-9.393 0.64-10.169 0.242-0.103 0.523-0.163 0.819-0.163 0.2 0 0.394 0.027 0.577 0.079l-0.015-0.004c0.146 0.038 0.313 0.060 0.485 0.060 0.143 0 0.283-0.015 0.417-0.044l-0.013 0.002c1.139-0.239 2.025-1.109 2.283-2.22l0.004-0.020c0.008-0.080 0.012-0.172 0.012-0.265 0-0.752-0.289-1.436-0.761-1.948l0.002 0.002z"></path>
</symbol>
</defs>
</svg>
